<svg width="141" height="44" viewBox="0 0 141 44" fill="none" xmlns="http://www.w3.org/2000/svg">
<path d="M50.54 11.78C50.54 10.9267 50.7 10.08 51.02 9.24002C51.34 8.40002 51.8067 7.64002 52.42 6.96002C53.0333 6.28002 53.78 5.74002 54.66 5.34002C55.54 4.92669 56.54 4.72002 57.66 4.72002C58.98 4.72002 60.1333 5.00669 61.12 5.58002C62.1067 6.15336 62.84 6.90002 63.32 7.82002L60.8 9.58002C60.5867 9.08669 60.3 8.70002 59.94 8.42002C59.58 8.12669 59.1933 7.92669 58.78 7.82002C58.3667 7.70002 57.9667 7.64002 57.58 7.64002C56.74 7.64002 56.0467 7.85336 55.5 8.28002C54.9533 8.70669 54.5467 9.24669 54.28 9.90002C54.0133 10.5534 53.88 11.22 53.88 11.9C53.88 12.6467 54.0333 13.3534 54.34 14.02C54.6467 14.6734 55.08 15.2 55.64 15.6C56.2 16 56.86 16.2 57.62 16.2C58.02 16.2 58.4267 16.14 58.84 16.02C59.2533 15.8867 59.6333 15.6734 59.98 15.38C60.34 15.0867 60.6133 14.7067 60.8 14.24L63.48 15.82C63.2 16.5267 62.74 17.1267 62.1 17.62C61.46 18.1 60.7333 18.4734 59.92 18.74C59.12 18.9934 58.3267 19.12 57.54 19.12C56.5133 19.12 55.5733 18.9134 54.72 18.5C53.8667 18.0734 53.1267 17.5134 52.5 16.82C51.8733 16.1134 51.3867 15.3267 51.04 14.46C50.7067 13.58 50.54 12.6867 50.54 11.78Z" fill="#605EFF"/>
<path d="M69.7914 19.2C68.5914 19.2 67.5714 18.9467 66.7314 18.44C65.9047 17.9334 65.2714 17.2667 64.8314 16.44C64.3914 15.6134 64.1714 14.72 64.1714 13.76C64.1714 12.7867 64.3914 11.8867 64.8314 11.06C65.2714 10.2334 65.9114 9.56669 66.7514 9.06002C67.5914 8.55336 68.6047 8.30002 69.7914 8.30002C70.9781 8.30002 71.9914 8.55336 72.8314 9.06002C73.6714 9.56669 74.3114 10.2334 74.7514 11.06C75.1914 11.8867 75.4114 12.7867 75.4114 13.76C75.4114 14.72 75.1914 15.6134 74.7514 16.44C74.3114 17.2667 73.6714 17.9334 72.8314 18.44C71.9914 18.9467 70.9781 19.2 69.7914 19.2ZM67.4514 13.76C67.4514 14.5734 67.6714 15.2334 68.1114 15.74C68.5647 16.2467 69.1247 16.5 69.7914 16.5C70.4447 16.5 70.9914 16.2467 71.4314 15.74C71.8847 15.2334 72.1114 14.5734 72.1114 13.76C72.1114 12.9467 71.8847 12.2867 71.4314 11.78C70.9914 11.2734 70.4447 11.02 69.7914 11.02C69.1247 11.02 68.5647 11.2734 68.1114 11.78C67.6714 12.2867 67.4514 12.9467 67.4514 13.76Z" fill="#605EFF"/>
<path d="M76.3984 13.74C76.3984 12.7267 76.5918 11.8134 76.9784 11C77.3784 10.1734 77.9251 9.52002 78.6184 9.04002C79.3251 8.54669 80.1318 8.30002 81.0384 8.30002C81.7718 8.30002 82.4318 8.48002 83.0184 8.84002C83.6184 9.18669 84.0784 9.64669 84.3984 10.22V4.40002H87.5984V15.44C87.5984 15.76 87.6451 15.9867 87.7384 16.12C87.8451 16.2534 88.0251 16.3267 88.2784 16.34V19C87.7184 19.1067 87.2651 19.16 86.9184 19.16C86.3718 19.16 85.9251 19.04 85.5784 18.8C85.2318 18.56 85.0251 18.2267 84.9584 17.8L84.8984 17.26C84.5251 17.9134 84.0184 18.4 83.3784 18.72C82.7384 19.04 82.0651 19.2 81.3584 19.2C80.3984 19.2 79.5451 18.9667 78.7984 18.5C78.0518 18.02 77.4651 17.3667 77.0384 16.54C76.6118 15.7134 76.3984 14.78 76.3984 13.74ZM84.4184 15.04V12.84C84.2184 12.3067 83.8918 11.8734 83.4384 11.54C82.9984 11.1934 82.5384 11.02 82.0584 11.02C81.6051 11.02 81.1984 11.1467 80.8384 11.4C80.4784 11.6534 80.1984 11.9934 79.9984 12.42C79.7984 12.8467 79.6984 13.3067 79.6984 13.8C79.6984 14.5734 79.9318 15.22 80.3984 15.74C80.8784 16.2467 81.4851 16.5 82.2184 16.5C82.6584 16.5 83.0784 16.3734 83.4784 16.12C83.8918 15.8534 84.2051 15.4934 84.4184 15.04Z" fill="#605EFF"/>
<path d="M95.1044 19.2C93.9177 19.2 92.9044 18.9534 92.0644 18.46C91.2244 17.9667 90.5777 17.3134 90.1244 16.5C89.6844 15.6867 89.4644 14.8067 89.4644 13.86C89.4644 12.8467 89.6844 11.92 90.1244 11.08C90.5644 10.24 91.2044 9.56669 92.0444 9.06002C92.8844 8.55336 93.9044 8.30002 95.1044 8.30002C96.291 8.30002 97.3044 8.55336 98.1444 9.06002C98.9844 9.56669 99.6177 10.2334 100.044 11.06C100.484 11.8867 100.704 12.7734 100.704 13.72C100.704 14.1067 100.678 14.4467 100.624 14.74H92.8644C92.9177 15.4467 93.171 15.9867 93.6244 16.36C94.091 16.72 94.6177 16.9 95.2044 16.9C95.671 16.9 96.1177 16.7867 96.5444 16.56C96.971 16.3334 97.2644 16.0267 97.4244 15.64L100.144 16.4C99.731 17.2267 99.0844 17.9 98.2044 18.42C97.3377 18.94 96.3044 19.2 95.1044 19.2ZM92.7844 12.78H97.3444C97.2777 12.1134 97.031 11.5867 96.6044 11.2C96.191 10.8 95.6777 10.6 95.0644 10.6C94.451 10.6 93.931 10.8 93.5044 11.2C93.091 11.6 92.851 12.1267 92.7844 12.78Z" fill="#605EFF"/>
<path d="M103.985 8.50002L105.845 11.46L106.045 11.84L106.245 11.46L108.105 8.50002H111.405L107.885 13.72L111.485 19H108.185L106.225 16.06L106.045 15.68L105.865 16.06L103.905 19H100.605L104.205 13.78L100.685 8.50002H103.985Z" fill="#605EFF"/>
<path d="M56.18 24.8H57.36L63.26 39H61.78L59.94 34.56H53.56L51.74 39H50.24L56.18 24.8ZM59.62 33.46L56.76 26.44L53.86 33.46H59.62Z" fill="#605EFF"/>
<path d="M69.2426 39.2C68.2293 39.2 67.3293 38.9534 66.5426 38.46C65.756 37.9534 65.136 37.2934 64.6826 36.48C64.2293 35.6534 64.0026 34.7467 64.0026 33.76C64.0026 32.7734 64.2226 31.88 64.6626 31.08C65.1026 30.2667 65.716 29.62 66.5026 29.14C67.2893 28.6467 68.196 28.4 69.2226 28.4C70.196 28.4 71.0493 28.6267 71.7826 29.08C72.5293 29.52 73.0893 30.12 73.4626 30.88L72.1426 31.3C71.8493 30.7667 71.436 30.3534 70.9026 30.06C70.3826 29.7534 69.8026 29.6 69.1626 29.6C68.456 29.6 67.816 29.78 67.2426 30.14C66.6826 30.5 66.2293 31 65.8826 31.64C65.5493 32.2667 65.3826 32.9734 65.3826 33.76C65.3826 34.5467 65.556 35.26 65.9026 35.9C66.2493 36.54 66.7093 37.0534 67.2826 37.44C67.856 37.8134 68.4893 38 69.1826 38C69.636 38 70.076 37.92 70.5026 37.76C70.9293 37.6 71.296 37.3867 71.6026 37.12C71.9093 36.84 72.116 36.54 72.2226 36.22L73.5626 36.62C73.376 37.1134 73.0693 37.56 72.6426 37.96C72.216 38.3467 71.7093 38.6534 71.1226 38.88C70.536 39.0934 69.9093 39.2 69.2426 39.2Z" fill="#605EFF"/>
<path d="M74.8592 36C74.8592 35.36 75.0459 34.8067 75.4192 34.34C75.7925 33.86 76.3059 33.4867 76.9592 33.22C77.6259 32.9534 78.3925 32.82 79.2592 32.82C79.7659 32.82 80.2925 32.8667 80.8392 32.96C81.3859 33.04 81.8725 33.1534 82.2992 33.3V32.42C82.2992 31.54 82.0392 30.84 81.5192 30.32C80.9992 29.8 80.2792 29.54 79.3592 29.54C78.8125 29.54 78.2659 29.6467 77.7192 29.86C77.1725 30.06 76.6059 30.36 76.0192 30.76L75.4992 29.8C76.1792 29.3334 76.8459 28.9867 77.4992 28.76C78.1525 28.52 78.8192 28.4 79.4992 28.4C80.7792 28.4 81.7925 28.7667 82.5392 29.5C83.2859 30.2334 83.6592 31.2467 83.6592 32.54V37.36C83.6592 37.72 83.8259 37.9067 84.1592 37.92V39C83.8659 39.04 83.6592 39.0534 83.5392 39.04C83.2059 39.0267 82.9525 38.92 82.7792 38.72C82.6059 38.52 82.5125 38.3067 82.4992 38.08L82.4792 37.32C82.0125 37.92 81.4059 38.3867 80.6592 38.72C79.9125 39.04 79.1525 39.2 78.3792 39.2C77.6992 39.2 77.0925 39.06 76.5592 38.78C76.0259 38.4867 75.6059 38.1 75.2992 37.62C75.0059 37.1267 74.8592 36.5867 74.8592 36ZM81.8392 36.8C82.1459 36.44 82.2992 36.1067 82.2992 35.8V34.28C81.3792 33.92 80.4192 33.74 79.4192 33.74C78.4459 33.74 77.6592 33.9334 77.0592 34.32C76.4592 34.7067 76.1592 35.2334 76.1592 35.9C76.1592 36.4734 76.3792 36.9934 76.8192 37.46C77.2725 37.9267 77.8992 38.16 78.6992 38.16C79.3525 38.16 79.9592 38.0334 80.5192 37.78C81.0925 37.5267 81.5325 37.2 81.8392 36.8Z" fill="#605EFF"/>
<path d="M85.8976 33.82C85.8976 32.8334 86.0976 31.9334 86.4976 31.12C86.911 30.2934 87.4776 29.6334 88.1976 29.14C88.9176 28.6467 89.7376 28.4 90.6576 28.4C91.5243 28.4 92.2976 28.6334 92.9776 29.1C93.671 29.5534 94.211 30.1067 94.5976 30.76V24.4H95.9576V37.36C95.9576 37.72 96.1176 37.9067 96.4376 37.92V39C96.171 39.04 95.9643 39.0534 95.8176 39.04C95.5243 39.0267 95.271 38.92 95.0576 38.72C94.8576 38.5067 94.7576 38.2667 94.7576 38V36.98C94.3443 37.66 93.7843 38.2 93.0776 38.6C92.371 39 91.6376 39.2 90.8776 39.2C90.1576 39.2 89.491 39.0534 88.8776 38.76C88.2643 38.4667 87.731 38.0667 87.2776 37.56C86.8376 37.0534 86.4976 36.48 86.2576 35.84C86.0176 35.1867 85.8976 34.5134 85.8976 33.82ZM94.5976 35.42V32.2C94.4243 31.72 94.1443 31.2867 93.7576 30.9C93.371 30.5 92.931 30.1867 92.4376 29.96C91.9576 29.72 91.4776 29.6 90.9976 29.6C90.251 29.6 89.5976 29.8067 89.0376 30.22C88.491 30.62 88.0643 31.1467 87.7576 31.8C87.451 32.44 87.2976 33.1134 87.2976 33.82C87.2976 34.5667 87.4643 35.26 87.7976 35.9C88.1443 36.54 88.611 37.0534 89.1976 37.44C89.7843 37.8134 90.4443 38 91.1776 38C91.631 38 92.1043 37.8867 92.5976 37.66C93.1043 37.42 93.5443 37.1067 93.9176 36.72C94.3043 36.3334 94.531 35.9 94.5976 35.42Z" fill="#605EFF"/>
<path d="M103.539 39.2C102.539 39.2 101.646 38.9534 100.859 38.46C100.072 37.9667 99.4524 37.3067 98.9991 36.48C98.5457 35.6534 98.3191 34.7467 98.3191 33.76C98.3191 32.7867 98.5391 31.8934 98.9791 31.08C99.4324 30.2667 100.052 29.62 100.839 29.14C101.626 28.6467 102.519 28.4 103.519 28.4C104.546 28.4 105.446 28.6467 106.219 29.14C106.992 29.6334 107.592 30.2867 108.019 31.1C108.459 31.9 108.679 32.78 108.679 33.74C108.679 33.9534 108.672 34.1334 108.659 34.28H99.7391C99.8057 35.0267 100.019 35.6934 100.379 36.28C100.739 36.8534 101.199 37.3134 101.759 37.66C102.319 37.9934 102.932 38.16 103.599 38.16C104.279 38.16 104.919 37.9867 105.519 37.64C106.119 37.2934 106.546 36.84 106.799 36.28L107.979 36.6C107.766 37.1067 107.432 37.56 106.979 37.96C106.539 38.3467 106.026 38.6534 105.439 38.88C104.852 39.0934 104.219 39.2 103.539 39.2ZM99.6991 33.3H107.399C107.346 32.5534 107.139 31.8934 106.779 31.32C106.419 30.7334 105.959 30.28 105.399 29.96C104.839 29.6267 104.219 29.46 103.539 29.46C102.859 29.46 102.239 29.6267 101.679 29.96C101.119 30.28 100.659 30.7334 100.299 31.32C99.9524 31.8934 99.7524 32.5534 99.6991 33.3Z" fill="#605EFF"/>
<path d="M126.277 39H124.917V33.18C124.917 31.98 124.724 31.0934 124.337 30.52C123.951 29.9334 123.377 29.64 122.617 29.64C121.817 29.64 121.111 29.92 120.497 30.48C119.884 31.04 119.451 31.76 119.197 32.64V39H117.837V33.18C117.837 31.9534 117.644 31.06 117.257 30.5C116.884 29.9267 116.317 29.64 115.557 29.64C114.771 29.64 114.064 29.9134 113.437 30.46C112.824 31.0067 112.391 31.7267 112.137 32.62V39H110.777V28.58H112.017V30.94C112.444 30.14 113.004 29.52 113.697 29.08C114.391 28.6267 115.157 28.4 115.997 28.4C116.864 28.4 117.564 28.6534 118.097 29.16C118.631 29.6534 118.957 30.2934 119.077 31.08C120.037 29.2934 121.377 28.4 123.097 28.4C124.271 28.4 125.091 28.8134 125.557 29.64C126.037 30.4534 126.277 31.54 126.277 32.9V39Z" fill="#605EFF"/>
<path d="M129.541 42.2C129.728 42.2134 129.908 42.22 130.081 42.22C130.255 42.2334 130.381 42.2267 130.461 42.2C130.621 42.1867 130.768 42.0934 130.901 41.92C131.048 41.76 131.221 41.4534 131.421 41C131.635 40.56 131.921 39.8934 132.281 39L127.741 28.58H129.181L133.001 37.6L136.521 28.58H137.881L132.481 42.02C132.335 42.4067 132.088 42.74 131.741 43.02C131.395 43.3 130.935 43.4467 130.361 43.46C130.241 43.4734 130.115 43.4734 129.981 43.46C129.848 43.46 129.701 43.4467 129.541 43.42V42.2Z" fill="#605EFF"/>
<path fill-rule="evenodd" clip-rule="evenodd" d="M6 2C3.79086 2 2 3.79086 2 6V38C2 40.2091 3.79086 42 6 42H38C40.2091 42 42 40.2091 42 38V6C42 3.79086 40.2091 2 38 2H6ZM15.7774 21.2244C15.9968 20.8483 16.1065 20.3077 16.1065 19.6026V15.1368C16.1065 14.557 16.2475 14.1182 16.5296 13.8205C16.8273 13.5071 17.266 13.3504 17.8458 13.3504H18.3394V11H17.1642C15.8479 11 14.8529 11.3291 14.1791 11.9872C13.5053 12.6296 13.1684 13.5776 13.1684 14.8312V19.6731C13.1684 20.4252 12.8159 20.8013 12.1108 20.8013H11.3351V23.1987H12.1108C12.8159 23.1987 13.1684 23.5748 13.1684 24.3269V29.1688C13.1684 30.4224 13.5053 31.3704 14.1791 32.0128C14.8529 32.6709 15.8479 33 17.1642 33H18.3394V30.6496H17.8458C17.266 30.6496 16.8273 30.4929 16.5296 30.1795C16.2475 29.8818 16.1065 29.443 16.1065 28.8632V24.3974C16.1065 23.6923 15.9968 23.1595 15.7774 22.7991C15.558 22.4231 15.2055 22.1567 14.7197 22C15.2055 21.8433 15.558 21.5848 15.7774 21.2244ZM32.6649 23.1987V20.8013H31.8657C31.5367 20.8013 31.2781 20.7073 31.0901 20.5192C30.9177 20.3312 30.8315 20.0491 30.8315 19.6731V14.8312C30.8315 13.5776 30.4868 12.6296 29.7974 11.9872C29.1236 11.3291 28.1285 11 26.8123 11H25.6371V13.3504H26.1307C26.7261 13.3504 27.1649 13.5071 27.4469 13.8205C27.7446 14.1182 27.8935 14.557 27.8935 15.1368V19.6026C27.8935 20.3234 27.9954 20.864 28.1991 21.2244C28.4184 21.5848 28.771 21.8433 29.2568 22C28.771 22.1567 28.4184 22.4152 28.1991 22.7756C27.9954 23.136 27.8935 23.6766 27.8935 24.3974V28.8632C27.8935 29.443 27.7446 29.8818 27.4469 30.1795C27.1649 30.4929 26.7261 30.6496 26.1307 30.6496H25.6371V33H26.8123C28.1285 33 29.1236 32.6709 29.7974 32.0128C30.4868 31.3704 30.8315 30.4224 30.8315 29.1688V24.3269C30.8315 23.9509 30.9177 23.6688 31.0901 23.4808C31.2781 23.2927 31.5367 23.1987 31.8657 23.1987H32.6649Z" fill="#605EFF"/>
</svg>
