<svg width="24" height="25" viewBox="0 0 24 25" fill="none" xmlns="http://www.w3.org/2000/svg">
<path d="M0 4.09522C0 1.88608 1.79086 0.0952148 4 0.0952148H20C22.2091 0.0952148 24 1.88608 24 4.09521V20.0952C24 22.3044 22.2091 24.0952 20 24.0952H4C1.79086 24.0952 0 22.3044 0 20.0952V4.09522Z" fill="#F0F0FA"/>
<path fill-rule="evenodd" clip-rule="evenodd" d="M5.57663 10.7031C5.94585 10.3339 6.4466 10.1265 6.96875 10.1265C7.49089 10.1265 7.99165 10.3339 8.36087 10.7031C8.73008 11.0723 8.9375 11.5731 8.9375 12.0952C8.9375 12.6174 8.73008 13.1181 8.36087 13.4873C7.99165 13.8565 7.49089 14.064 6.96875 14.064C6.4466 14.064 5.94585 13.8565 5.57663 13.4873C5.20742 13.1181 5 12.6174 5 12.0952C5 11.5731 5.20742 11.0723 5.57663 10.7031ZM6.96875 11.0015C6.67867 11.0015 6.40047 11.1167 6.19535 11.3218C5.99023 11.5269 5.875 11.8051 5.875 12.0952C5.875 12.3853 5.99023 12.6635 6.19535 12.8686C6.40047 13.0737 6.67867 13.189 6.96875 13.189C7.25883 13.189 7.53703 13.0737 7.74215 12.8686C7.94727 12.6635 8.0625 12.3853 8.0625 12.0952C8.0625 11.8051 7.94727 11.5269 7.74215 11.3218C7.53703 11.1167 7.25883 11.0015 6.96875 11.0015Z" fill="#605EFF"/>
<path fill-rule="evenodd" clip-rule="evenodd" d="M15.6391 10.7031C16.0083 10.3339 16.5091 10.1265 17.0312 10.1265C17.5534 10.1265 18.0542 10.3339 18.4234 10.7031C18.7926 11.0723 19 11.5731 19 12.0952C19 12.6174 18.7926 13.1181 18.4234 13.4873C18.0542 13.8565 17.5534 14.064 17.0312 14.064C16.5091 14.064 16.0083 13.8565 15.6391 13.4873C15.2699 13.1181 15.0625 12.6174 15.0625 12.0952C15.0625 11.5731 15.2699 11.0723 15.6391 10.7031ZM17.0312 11.0015C16.7412 11.0015 16.463 11.1167 16.2579 11.3218C16.0527 11.5269 15.9375 11.8051 15.9375 12.0952C15.9375 12.3853 16.0527 12.6635 16.2579 12.8686C16.463 13.0737 16.7412 13.189 17.0312 13.189C17.3213 13.189 17.5995 13.0737 17.8046 12.8686C18.0098 12.6635 18.125 12.3853 18.125 12.0952C18.125 11.8051 18.0098 11.5269 17.8046 11.3218C17.5995 11.1167 17.3213 11.0015 17.0312 11.0015Z" fill="#605EFF"/>
<path fill-rule="evenodd" clip-rule="evenodd" d="M12 10.1265C11.4779 10.1265 10.9771 10.3339 10.6079 10.7031C10.2387 11.0723 10.0312 11.5731 10.0312 12.0952C10.0312 12.6174 10.2387 13.1181 10.6079 13.4873C10.9771 13.8565 11.4779 14.064 12 14.064C12.5221 14.064 13.0229 13.8565 13.3921 13.4873C13.7613 13.1181 13.9688 12.6174 13.9688 12.0952C13.9688 11.5731 13.7613 11.0723 13.3921 10.7031C13.0229 10.3339 12.5221 10.1265 12 10.1265ZM11.2266 11.3218C11.4317 11.1167 11.7099 11.0015 12 11.0015C12.2901 11.0015 12.5683 11.1167 12.7734 11.3218C12.9785 11.5269 13.0938 11.8051 13.0938 12.0952C13.0938 12.3853 12.9785 12.6635 12.7734 12.8686C12.5683 13.0737 12.2901 13.189 12 13.189C11.7099 13.189 11.4317 13.0737 11.2266 12.8686C11.0215 12.6635 10.9062 12.3853 10.9062 12.0952C10.9062 11.8051 11.0215 11.5269 11.2266 11.3218Z" fill="#605EFF"/>
</svg>
