<svg width="24" height="24" viewBox="0 0 24 24" fill="none" xmlns="http://www.w3.org/2000/svg">
<path d="M0 4C0 1.79086 1.79086 0 4 0H20C22.2091 0 24 1.79086 24 4V20C24 22.2091 22.2091 24 20 24H4C1.79086 24 0 22.2091 0 20V4Z" fill="white"/>
<path fill-rule="evenodd" clip-rule="evenodd" d="M5.57663 10.6079C5.94585 10.2387 6.4466 10.0312 6.96875 10.0312C7.49089 10.0312 7.99165 10.2387 8.36087 10.6079C8.73008 10.9771 8.9375 11.4779 8.9375 12C8.9375 12.5221 8.73008 13.0229 8.36087 13.3921C7.99165 13.7613 7.49089 13.9687 6.96875 13.9687C6.4466 13.9687 5.94585 13.7613 5.57663 13.3921C5.20742 13.0229 5 12.5221 5 12C5 11.4779 5.20742 10.9771 5.57663 10.6079ZM6.96875 10.9062C6.67867 10.9062 6.40047 11.0215 6.19535 11.2266C5.99023 11.4317 5.875 11.7099 5.875 12C5.875 12.2901 5.99023 12.5683 6.19535 12.7734C6.40047 12.9785 6.67867 13.0938 6.96875 13.0938C7.25883 13.0938 7.53703 12.9785 7.74215 12.7734C7.94727 12.5683 8.0625 12.2901 8.0625 12C8.0625 11.7099 7.94727 11.4317 7.74215 11.2266C7.53703 11.0215 7.25883 10.9062 6.96875 10.9062Z" fill="black" fill-opacity="0.87"/>
<path fill-rule="evenodd" clip-rule="evenodd" d="M15.6391 10.6079C16.0083 10.2387 16.5091 10.0312 17.0312 10.0312C17.5534 10.0312 18.0542 10.2387 18.4234 10.6079C18.7926 10.9771 19 11.4779 19 12C19 12.5221 18.7926 13.0229 18.4234 13.3921C18.0542 13.7613 17.5534 13.9687 17.0312 13.9687C16.5091 13.9687 16.0083 13.7613 15.6391 13.3921C15.2699 13.0229 15.0625 12.5221 15.0625 12C15.0625 11.4779 15.2699 10.9771 15.6391 10.6079ZM17.0312 10.9062C16.7412 10.9062 16.463 11.0215 16.2579 11.2266C16.0527 11.4317 15.9375 11.7099 15.9375 12C15.9375 12.2901 16.0527 12.5683 16.2579 12.7734C16.463 12.9785 16.7412 13.0938 17.0312 13.0938C17.3213 13.0938 17.5995 12.9785 17.8046 12.7734C18.0098 12.5683 18.125 12.2901 18.125 12C18.125 11.7099 18.0098 11.4317 17.8046 11.2266C17.5995 11.0215 17.3213 10.9062 17.0312 10.9062Z" fill="black" fill-opacity="0.87"/>
<path fill-rule="evenodd" clip-rule="evenodd" d="M12 10.0312C11.4779 10.0312 10.9771 10.2387 10.6079 10.6079C10.2387 10.9771 10.0312 11.4779 10.0312 12C10.0312 12.5221 10.2387 13.0229 10.6079 13.3921C10.9771 13.7613 11.4779 13.9687 12 13.9687C12.5221 13.9687 13.0229 13.7613 13.3921 13.3921C13.7613 13.0229 13.9688 12.5221 13.9688 12C13.9688 11.4779 13.7613 10.9771 13.3921 10.6079C13.0229 10.2387 12.5221 10.0312 12 10.0312ZM11.2266 11.2266C11.4317 11.0215 11.7099 10.9062 12 10.9062C12.2901 10.9062 12.5683 11.0215 12.7734 11.2266C12.9785 11.4317 13.0938 11.7099 13.0938 12C13.0938 12.2901 12.9785 12.5683 12.7734 12.7734C12.5683 12.9785 12.2901 13.0938 12 13.0938C11.7099 13.0938 11.4317 12.9785 11.2266 12.7734C11.0215 12.5683 10.9062 12.2901 10.9062 12C10.9062 11.7099 11.0215 11.4317 11.2266 11.2266Z" fill="black" fill-opacity="0.87"/>
</svg>
