<svg width="18" height="20" viewBox="0 0 18 20" fill="none" xmlns="http://www.w3.org/2000/svg">
<path d="M5.55475 1.43256C6.472 0.515307 7.71606 0 9.01326 0C10.3104 0 11.5545 0.515307 12.4718 1.43256C13.389 2.34981 13.9043 3.59387 13.9043 4.89106C13.9043 6.18825 13.389 7.43231 12.4718 8.34957C11.5545 9.26682 10.3104 9.78213 9.01326 9.78213C7.71606 9.78213 6.472 9.26682 5.55475 8.34957C4.6375 7.43231 4.12219 6.18825 4.12219 4.89106C4.12219 3.59387 4.6375 2.34981 5.55475 1.43256Z" fill="#605EFF"/>
<path d="M9.00435 11.1161H9.01324L8.99546 11.0983C13.6553 11.1072 17.4348 14.8866 17.4437 19.5554C17.4437 19.7955 17.2391 20 16.999 20H1.00079C0.751795 20 0.556152 19.8044 0.556152 19.5643C0.556152 14.8955 4.33561 11.1161 9.00435 11.1161Z" fill="#605EFF"/>
</svg>
