<svg width="20" height="16" viewBox="0 0 20 16" fill="none" xmlns="http://www.w3.org/2000/svg">
<path d="M15.0188 9.59532C14.2595 9.59532 13.5086 9.76136 12.8327 10.0951H12.8244C12.6158 10.1952 12.524 10.4455 12.6325 10.6458C12.6325 10.6541 12.6408 10.6625 12.6492 10.6792C13.3667 11.8473 13.7505 13.199 13.7505 14.5841C13.7505 14.8093 13.9341 14.9929 14.1677 14.9929H19.5912H19.5828C19.8081 14.9929 20 14.801 20 14.5757V14.5674C20 11.7972 17.7555 9.56111 14.9938 9.56111C14.9854 9.56111 14.9854 9.56111 14.9854 9.56111L15.0188 9.59532Z" fill="#605EFF"/>
<path d="M14.9687 2.92032C14.1389 2.92032 13.343 3.24997 12.7562 3.83675C12.1695 4.42354 11.8398 5.21939 11.8398 6.04923C11.8398 6.87907 12.1695 7.67492 12.7562 8.2617C13.343 8.84849 14.1389 9.17814 14.9687 9.17814C15.7986 9.17814 16.5944 8.84849 17.1812 8.2617C17.768 7.67492 18.0976 6.87907 18.0976 6.04923C18.0976 5.21939 17.768 4.42354 17.1812 3.83675C16.5944 3.24997 15.7986 2.92032 14.9687 2.92032Z" fill="#605EFF"/>
<path d="M6.25782 0C5.73736 -7.75555e-09 5.22199 0.102513 4.74114 0.301687C4.26029 0.500861 3.82338 0.792795 3.45536 1.16082C3.08733 1.52885 2.7954 1.96576 2.59622 2.4466C2.39705 2.92745 2.29453 3.44282 2.29453 3.96329C2.29453 4.48375 2.39705 4.99912 2.59622 5.47997C2.7954 5.96082 3.08733 6.39773 3.45536 6.76576C3.82338 7.13378 4.26029 7.42571 4.74114 7.62489C5.22199 7.82406 5.73736 7.92658 6.25782 7.92658C6.77829 7.92658 7.29366 7.82406 7.77451 7.62489C8.25535 7.42571 8.69227 7.13378 9.06029 6.76576C9.42832 6.39773 9.72025 5.96082 9.91942 5.47997C10.1186 4.99912 10.2211 4.48375 10.2211 3.96329C10.2211 3.44282 10.1186 2.92745 9.91942 2.4466C9.72025 1.96576 9.42832 1.52885 9.06029 1.16082C8.69227 0.792795 8.25535 0.500861 7.77451 0.301687C7.29366 0.102513 6.77829 -7.75555e-09 6.25782 0Z" fill="#605EFF"/>
<path d="M12.5156 14.6016C12.5156 11.1389 9.71214 8.34292 6.25782 8.34292C2.79516 8.34292 0 11.1381 0 14.6007C0 14.826 0.183563 15.0096 0.417188 15.0096H12.0985C12.3237 15.0012 12.5073 14.8168 12.5073 14.5832L12.5156 14.6016Z" fill="#605EFF"/>
</svg>
