<svg width="20" height="16" viewBox="0 0 20 16" fill="none" xmlns="http://www.w3.org/2000/svg">
<path fill-rule="evenodd" clip-rule="evenodd" d="M6.06974 8.6213C5.0526 8.57676 4.10289 8.15969 3.37871 7.43514C2.61106 6.66749 2.18817 5.64708 2.18817 4.56154C2.18817 3.476 2.61106 2.45559 3.37871 1.68794C4.14596 0.920298 5.16637 0.497803 6.25191 0.497803C7.33704 0.497803 8.35745 0.920298 9.12551 1.68794C9.89316 2.456 10.3156 3.47641 10.3156 4.56154C10.3156 5.64667 9.89315 6.66709 9.12551 7.43514C8.40618 8.15408 7.46551 8.57028 6.45763 8.6202C8.04105 8.66937 9.52609 9.31026 10.658 10.4398C11.8424 11.621 12.4953 13.1913 12.4953 14.8609C12.4953 15.2061 12.2153 15.4861 11.8701 15.4861C11.5249 15.4861 11.2449 15.2061 11.2449 14.8609C11.2449 13.5259 10.7231 12.2706 9.77514 11.3247C8.83247 10.3844 7.58412 9.86751 6.25885 9.86751C4.94091 9.88379 3.65796 10.3861 2.71 11.3369C1.7653 12.2836 1.24675 13.5405 1.2504 14.8756C1.25121 15.2207 0.971995 15.5016 0.626839 15.5024H0.625214C0.280467 15.5024 0.000839954 15.2232 2.30383e-05 14.8788C-0.00445333 13.2092 0.643528 11.6381 1.82471 10.4536C2.96425 9.31019 4.46093 8.67911 6.06974 8.6213ZM4.26277 2.572C4.79395 2.04083 5.50054 1.74818 6.25191 1.74818C7.00328 1.74818 7.70987 2.04083 8.24145 2.572C8.77262 3.10358 9.06527 3.81017 9.06527 4.56154C9.06527 5.31291 8.77262 6.0195 8.24145 6.55108C7.1783 7.61342 5.32511 7.61342 4.26277 6.55108C3.7312 6.0195 3.43855 5.31291 3.43855 4.56154C3.43855 3.81017 3.7312 3.10358 4.26277 2.572Z" fill="black" fill-opacity="0.6"/>
<path fill-rule="evenodd" clip-rule="evenodd" d="M13.7824 9.73226C13.2431 9.57128 12.7491 9.278 12.3398 8.86868C11.6902 8.21866 11.3328 7.35536 11.3328 6.43711C11.3328 5.51887 11.6902 4.65556 12.3398 4.00555C12.9894 3.35634 13.8523 2.99857 14.7714 2.99857C15.6766 2.99857 16.5631 3.3657 17.2029 4.00555C17.8525 4.65557 18.2099 5.51887 18.2099 6.43711C18.2099 7.35536 17.8525 8.21867 17.2029 8.86868C16.8002 9.27141 16.2998 9.5661 15.7584 9.7292C16.1692 9.80868 16.5732 9.93847 16.9628 10.1183C18.2327 10.7044 19.1973 11.7488 19.6785 13.0594C19.8925 13.6504 20 14.2553 20 14.8585C20 15.2036 19.72 15.4837 19.3748 15.4837C19.0296 15.4837 18.7496 15.2036 18.7496 14.8585C18.7496 14.4002 18.6666 13.9394 18.5038 13.4876C18.1391 12.4937 17.4056 11.6992 16.4393 11.2539C15.4934 10.8167 14.4351 10.7687 13.4558 11.1147C13.3728 11.1554 13.28 11.179 13.1815 11.179C12.8364 11.179 12.5563 10.903 12.5563 10.5579V10.5489C12.5563 10.2876 12.7191 10.0531 12.9642 9.96279C13.233 9.8632 13.5065 9.78639 13.7824 9.73226ZM14.7714 4.24895C14.1869 4.24895 13.6374 4.47648 13.2238 4.8896C12.8111 5.30314 12.5832 5.85262 12.5832 6.43711C12.5832 7.02161 12.8111 7.57109 13.2238 7.98463C14.0452 8.8052 15.4991 8.80438 16.3189 7.98463C16.7316 7.57109 16.9595 7.02161 16.9595 6.43711C16.9595 5.85262 16.7316 5.30314 16.3189 4.8896C15.9118 4.48258 15.3477 4.24895 14.7714 4.24895Z" fill="black" fill-opacity="0.6"/>
</svg>
