<svg width="20" height="20" viewBox="0 0 20 20" fill="none" xmlns="http://www.w3.org/2000/svg">
<path d="M10 5.625C10.3452 5.625 10.625 5.90482 10.625 6.25V9.375H13.75C14.0952 9.375 14.375 9.65482 14.375 10C14.375 10.3452 14.0952 10.625 13.75 10.625H10.625V13.75C10.625 14.0952 10.3452 14.375 10 14.375C9.65482 14.375 9.375 14.0952 9.375 13.75V10.625H6.25C5.90482 10.625 5.625 10.3452 5.625 10C5.625 9.65482 5.90482 9.375 6.25 9.375H9.375V6.25C9.375 5.90482 9.65482 5.625 10 5.625Z" fill="white"/>
<path fill-rule="evenodd" clip-rule="evenodd" d="M10 0C7.34783 0 4.8043 1.05357 2.92893 2.92893C1.05357 4.8043 0 7.34783 0 10C0 12.6522 1.05357 15.1957 2.92893 17.0711C4.8043 18.9464 7.34783 20 10 20C12.6522 20 15.1957 18.9464 17.0711 17.0711C18.9464 15.1957 20 12.6522 20 10C20 7.34783 18.9464 4.8043 17.0711 2.92893C15.1957 1.05357 12.6522 0 10 0ZM3.81282 3.81282C5.45376 2.17187 7.67936 1.25 10 1.25C12.3206 1.25 14.5462 2.17187 16.1872 3.81282C17.8281 5.45376 18.75 7.67936 18.75 10C18.75 12.3206 17.8281 14.5462 16.1872 16.1872C14.5462 17.8281 12.3206 18.75 10 18.75C7.67936 18.75 5.45376 17.8281 3.81282 16.1872C2.17187 14.5462 1.25 12.3206 1.25 10C1.25 7.67936 2.17187 5.45376 3.81282 3.81282Z" fill="white"/>
</svg>
