<svg width="20" height="20" viewBox="0 0 20 20" fill="none" xmlns="http://www.w3.org/2000/svg">
<path fill-rule="evenodd" clip-rule="evenodd" d="M1.25 0C0.559644 0 0 0.559644 0 1.25V3.75C0 4.44036 0.559644 5 1.25 5H3.75C4.44036 5 5 4.44036 5 3.75V1.25C5 0.559644 4.44036 0 3.75 0H1.25ZM1.25 1.25H3.75V3.75H1.25V1.25Z" fill="black" fill-opacity="0.6"/>
<path d="M6.875 2.50168C6.52982 2.50168 6.25 2.7815 6.25 3.12668C6.25 3.47186 6.52982 3.75168 6.875 3.75168H19.375C19.7202 3.75168 20 3.47186 20 3.12668C20 2.7815 19.7202 2.50168 19.375 2.50168H6.875Z" fill="black" fill-opacity="0.6"/>
<path d="M6.875 10.0017C6.52982 10.0017 6.25 10.2815 6.25 10.6267C6.25 10.9719 6.52982 11.2517 6.875 11.2517H19.375C19.7202 11.2517 20 10.9719 20 10.6267C20 10.2815 19.7202 10.0017 19.375 10.0017H6.875Z" fill="black" fill-opacity="0.6"/>
<path d="M6.25 18.1267C6.25 17.7815 6.52982 17.5017 6.875 17.5017H19.375C19.7202 17.5017 20 17.7815 20 18.1267C20 18.4719 19.7202 18.7517 19.375 18.7517H6.875C6.52982 18.7517 6.25 18.4719 6.25 18.1267Z" fill="black" fill-opacity="0.6"/>
<path fill-rule="evenodd" clip-rule="evenodd" d="M0 8.75C0 8.05964 0.559644 7.5 1.25 7.5H3.75C4.44036 7.5 5 8.05964 5 8.75V11.25C5 11.9404 4.44036 12.5 3.75 12.5H1.25C0.559644 12.5 0 11.9404 0 11.25V8.75ZM3.75 8.75H1.25V11.25H3.75V8.75Z" fill="black" fill-opacity="0.6"/>
<path fill-rule="evenodd" clip-rule="evenodd" d="M1.25 15C0.559644 15 0 15.5596 0 16.25V18.75C0 19.4404 0.559644 20 1.25 20H3.75C4.44036 20 5 19.4404 5 18.75V16.25C5 15.5596 4.44036 15 3.75 15H1.25ZM1.25 16.25H3.75V18.75H1.25V16.25Z" fill="black" fill-opacity="0.6"/>
</svg>
