<svg width="20" height="18" viewBox="0 0 20 18" fill="none" xmlns="http://www.w3.org/2000/svg">
<path d="M2.92508 0.263105L2.90008 0.245605C3.58341 0.245605 4.15007 0.803936 4.15007 1.4956V3.17059C4.15007 3.85392 3.58341 4.42059 2.90008 4.42059L2.90841 4.42142H1.24175C0.558422 4.42142 -0.00824254 3.85476 9.07545e-05 3.17142V1.5131C9.07545e-05 0.821436 0.558422 0.263105 1.25008 0.263105H2.92508Z" fill="#605EFF"/>
<path d="M7.09173 3.17977H19.175L19.1667 3.17893C19.625 3.17893 20 2.80394 20 2.3456C20 1.87894 19.625 1.51227 19.1667 1.50394H7.07506C6.6084 1.50394 6.24173 1.87061 6.24173 2.33727C6.24173 2.7956 6.6084 3.1706 7.07506 3.16227L7.09173 3.17977Z" fill="#605EFF"/>
<path d="M19.175 8.17974H7.0834C6.61674 8.17974 6.25007 8.5464 6.25007 9.01306C6.25007 9.4714 6.61674 9.84639 7.0834 9.83806H19.1667L19.1583 9.83723C19.6167 9.83723 19.9917 9.46223 19.9917 9.0039C19.9917 8.53723 19.6167 8.17057 19.1583 8.16224L19.175 8.17974Z" fill="#605EFF"/>
<path d="M19.175 14.8464L19.1583 14.8297C19.6167 14.838 19.9917 15.2047 19.9917 15.6714C19.9917 16.1297 19.6167 16.5047 19.1583 16.5047H7.0834C6.61674 16.513 6.25007 16.138 6.25007 15.6797C6.25007 15.213 6.61674 14.8464 7.0834 14.8464H19.175Z" fill="#605EFF"/>
<path d="M2.92509 6.92974L2.90842 6.91224C3.59175 6.91224 4.15842 7.47057 4.15842 8.16224V9.82889C4.15842 10.5206 3.60009 11.0789 2.91675 11.0872L1.2501 11.0881C0.558432 11.0881 0.000101725 10.5297 0.000101725 9.84639V8.17974C0.000101725 7.48807 0.558432 6.92974 1.2501 6.92974H2.92509Z" fill="#605EFF"/>
<path d="M2.92509 13.5964L2.90842 13.5789C3.59175 13.5789 4.15842 14.1372 4.15842 14.8289V16.4955C4.15842 17.1872 3.60009 17.7455 2.91675 17.7539L1.2501 17.7547C0.558432 17.7547 0.000101725 17.1964 0.000101725 16.513V14.8464C0.000101725 14.1547 0.558432 13.5964 1.2501 13.5964H2.92509Z" fill="#605EFF"/>
</svg>
