<svg width="16" height="18" viewBox="0 0 16 18" fill="none" xmlns="http://www.w3.org/2000/svg">
<circle cx="8" cy="10" r="8" fill="black" fill-opacity="0.38"/>
<path fill-rule="evenodd" clip-rule="evenodd" d="M12.3018 5.5904C12.528 5.74876 12.583 6.06052 12.4246 6.28674L7.05569 13.9563C7.04225 13.9755 7.02759 13.9936 7.01185 14.0105C6.59561 14.5409 5.82963 14.6675 5.26365 14.2713C5.14614 14.189 5.04768 14.0903 4.96785 13.9823L3.60008 12.1592C3.43436 11.9383 3.47908 11.6249 3.69997 11.4592C3.92086 11.2935 4.23426 11.3382 4.39998 11.5591L5.77149 13.3872C5.79102 13.4137 5.81303 13.4352 5.83711 13.4521C5.96448 13.5412 6.14208 13.5113 6.23427 13.3809C6.24428 13.3668 6.25495 13.3532 6.26624 13.3403L11.6054 5.71326C11.7638 5.48704 12.0756 5.43203 12.3018 5.5904Z" fill="white"/>
</svg>
