<svg width="20" height="20" viewBox="0 0 20 20" fill="none" xmlns="http://www.w3.org/2000/svg">
<path d="M19.5303 1.53033C19.8232 1.23744 19.8232 0.762563 19.5303 0.46967C19.2374 0.176777 18.7626 0.176777 18.4697 0.46967L10 8.93934L1.53033 0.46967C1.23744 0.176777 0.762563 0.176777 0.46967 0.46967C0.176777 0.762563 0.176777 1.23744 0.46967 1.53033L8.93934 10L0.46967 18.4697C0.176777 18.7626 0.176777 19.2374 0.46967 19.5303C0.762563 19.8232 1.23744 19.8232 1.53033 19.5303L10 11.0607L18.4697 19.5303C18.7626 19.8232 19.2374 19.8232 19.5303 19.5303C19.8232 19.2374 19.8232 18.7626 19.5303 18.4697L11.0607 10L19.5303 1.53033Z" fill="black"/>
</svg>
