<svg width="16" height="20" viewBox="0 0 16 20" fill="none" xmlns="http://www.w3.org/2000/svg">
<path d="M0.574457 17.5636L0.566142 17.5553C0.566142 18.9024 1.65545 19.9917 3.01084 20H13.8623H13.854C14.7521 19.9917 15.4838 19.2599 15.4921 18.3536V4.94928C15.4838 4.04291 14.7521 3.31116 13.854 3.30284H2.99421L2.9859 3.30201C2.5535 3.2937 2.19594 2.94445 2.19594 2.51206C2.18763 2.0464 2.56182 1.67221 3.01916 1.67221H14.2199L14.2116 1.67138C14.6689 1.67138 15.0431 1.29719 15.0431 0.839847C15.0431 0.374189 14.6689 0.00831532 14.2116 0H3.01084H3.00253C1.62219 0 0.507935 1.11425 0.507935 2.4946L0.574457 17.5636ZM8.47401 12.2418H11.8001H11.7918C12.1327 12.2335 12.4155 12.5162 12.4155 12.8655C12.4155 13.2064 12.1327 13.4891 11.7918 13.4891H8.46569H8.45738C8.10813 13.4808 7.83373 13.2064 7.83373 12.8655C7.83373 12.5162 8.10813 12.2418 8.45738 12.2418H8.47401ZM4.28309 9.14851L4.27477 9.1402C4.03363 8.89074 4.04194 8.4916 4.28309 8.25046C4.52423 8.00931 4.90674 8.00931 5.14788 8.25046L7.22671 10.3293C7.46785 10.5704 7.46785 10.9613 7.22671 11.2024C7.2184 11.2024 7.2184 11.2024 7.2184 11.2024L5.13957 13.2812V13.2729C4.89842 13.5141 4.49929 13.5224 4.24983 13.2812C4.00037 13.0401 3.99205 12.6409 4.2332 12.3915C4.2332 12.3832 4.24151 12.3749 4.24151 12.3749L5.72995 10.8864V10.8781C5.80479 10.7949 5.80479 10.6619 5.72995 10.5787C5.72164 10.5704 5.72164 10.5704 5.72164 10.5704L4.28309 9.14851Z" fill="#605EFF"/>
</svg>
