<svg width="20" height="20" viewBox="0 0 20 20" fill="none" xmlns="http://www.w3.org/2000/svg">
<path d="M20 15.0141C20 14.7809 19.8084 14.5976 19.5835 14.5976H0.416493C0.183257 14.5976 0 14.7809 0 15.0141V15.8471C0 16.9966 0.924615 17.9212 2.08247 17.9212V19.1707C2.08247 19.6288 2.44898 19.9953 2.91545 19.9953C3.37359 19.987 3.74011 19.6205 3.74011 19.154V18.1128C3.73178 17.9962 3.83174 17.8962 3.94002 17.8962H16.0183H16.01C16.1183 17.8879 16.2182 17.9879 16.2182 18.0961V19.1374C16.2182 19.5955 16.5848 19.962 17.0512 19.962C17.5094 19.9537 17.8759 19.5872 17.8759 19.1207V17.8712C19.0254 17.8629 19.95 16.9375 19.95 15.7796L20 15.0141Z" fill="#605EFF"/>
<path d="M7.71344 13.7646H11.0454H11.0371C11.262 13.7646 11.4536 13.573 11.4536 13.3481V0.853323C11.4536 0.386851 11.0787 0.0203366 10.6206 0.0203366H8.11328C7.64681 0.0203366 7.28029 0.386851 7.28029 0.853323V13.3481C7.28029 13.573 7.46355 13.7563 7.69678 13.7563L7.71344 13.7646Z" fill="#605EFF"/>
<path d="M1.88254 13.7646H5.21449H5.20616C5.43106 13.7646 5.62265 13.573 5.62265 13.3481V0.853323C5.62265 0.386851 5.2478 0.0203366 4.78966 0.0203366H2.28237C1.8159 0.0203366 1.44939 0.386851 1.44939 0.853323V13.3481C1.44939 13.573 1.63264 13.7563 1.86588 13.7563L1.88254 13.7646Z" fill="#605EFF"/>
<path d="M15.232 13.7571L18.4306 13.1574V13.149C18.6472 13.1074 18.7972 12.8908 18.7555 12.6742L16.5148 0.670057C16.4315 0.220244 16.0066 -0.0629711 15.5652 0.0119977L13.1662 0.45348H13.1578C12.7164 0.528449 12.4248 0.953272 12.4998 1.39475L14.7322 13.3898L14.7238 13.3814C14.7572 13.598 14.9737 13.7479 15.1903 13.7063C15.1903 13.698 15.1903 13.698 15.1903 13.698L15.232 13.7571Z" fill="#605EFF"/>
</svg>
