<svg width="20" height="20" viewBox="0 0 20 20" fill="none" xmlns="http://www.w3.org/2000/svg">
<path fill-rule="evenodd" clip-rule="evenodd" d="M1.39348 14.4294C1.31127 14.2186 1.26614 13.9895 1.26614 13.75V1.875C1.26614 0.841067 2.10685 0 3.14034 0H5.63927C6.11886 0 6.55693 0.181111 6.88874 0.478562C7.22056 0.181111 7.65862 0 8.13821 0H10.6371C11.6702 0 12.5113 0.841067 12.5113 1.875V2.02227C12.7957 1.69289 13.195 1.46029 13.6583 1.39282L14.8956 1.21338C15.9189 1.06242 16.8714 1.77653 17.0195 2.79907L18.5463 13.3138C18.6005 13.6845 18.5441 14.0543 18.3869 14.385C19.2969 14.5126 20 15.297 20 16.2419C20 17.2697 19.1695 18.1063 18.1453 18.1169H18.1339L18.1339 19.375C18.1339 19.7201 17.8541 20 17.5092 20C17.1643 20 16.8845 19.7201 16.8845 19.375V18.1169H3.14034V19.375C3.14034 19.7201 2.86052 20 2.51561 20C2.17071 20 1.89088 19.7201 1.89088 19.375L1.89088 18.1169C0.912294 18.1169 0.106563 17.3657 0.0235899 16.4128C0.00813819 16.3574 0 16.3005 0 16.2419C0 15.3745 0.592166 14.6423 1.39348 14.4294ZM3.14034 15.625H5.63927C5.69839 15.625 5.75688 15.6222 5.81461 15.6169H7.96287C8.02061 15.6222 8.07909 15.625 8.13821 15.625H10.6371C10.6962 15.625 10.7547 15.6222 10.8124 15.6169H15.1707C15.2631 15.6309 15.3568 15.638 15.4511 15.638C15.5422 15.638 15.6334 15.6315 15.7253 15.6185L15.7365 15.6169H18.1258C18.4699 15.6169 18.7505 15.8976 18.7505 16.2419C18.7505 16.5804 18.4642 16.8669 18.1258 16.8669H1.89088C1.54638 16.8669 1.26614 16.5902 1.26614 16.25C1.26614 16.215 1.26289 16.1808 1.25679 16.1467C1.30275 15.8472 1.56265 15.6169 1.88274 15.6169H2.96501C3.02274 15.6222 3.08123 15.625 3.14034 15.625ZM3.03955 14.3669C2.74281 14.3185 2.51561 14.06 2.51561 13.75V1.875C2.51561 1.53036 2.79585 1.25 3.14034 1.25H5.63927C5.98377 1.25 6.26401 1.53036 6.26401 1.875V13.75C6.26401 14.06 6.0368 14.3185 5.74007 14.3669H3.03955ZM10.7378 14.3669H8.03742C7.74068 14.3185 7.51347 14.06 7.51347 13.75V1.875C7.51347 1.53036 7.79371 1.25 8.13821 1.25H10.6371C10.9812 1.25 11.2619 1.53036 11.2619 1.875V13.75C11.2619 14.06 11.0343 14.3185 10.7378 14.3669ZM12.4071 14.3669H13.6805C13.6442 14.2594 13.6173 14.1478 13.6005 14.0332L12.5113 6.53216V13.75C12.5113 13.966 12.4746 14.1736 12.4071 14.3669ZM15.6454 14.3669H15.2973C15.2204 14.3468 15.1473 14.3122 15.0818 14.2635C14.9476 14.1642 14.8606 14.0177 14.837 13.8533L13.3101 3.33821C13.2605 2.99723 13.4972 2.67944 13.8381 2.6298L15.0745 2.45035C15.4275 2.39582 15.7334 2.63875 15.783 2.97891L17.3099 13.4928C17.3343 13.6588 17.292 13.8232 17.1927 13.9575C17.0927 14.091 16.9471 14.1772 16.782 14.2017L15.6454 14.3669Z" fill="black" fill-opacity="0.6"/>
</svg>
