<svg width="16" height="20" viewBox="0 0 16 20" fill="none" xmlns="http://www.w3.org/2000/svg">
<path d="M3.95828 14.3817C3.79849 14.3817 3.6387 14.3207 3.51672 14.1987C3.27276 13.9547 3.27276 13.5595 3.51672 13.3156L4.94875 11.8835L3.51672 10.4515C3.27276 10.2076 3.27276 9.81236 3.51672 9.5684C3.76068 9.32444 4.15589 9.32444 4.39985 9.5684L6.27344 11.442C6.51739 11.6859 6.51739 12.0812 6.27344 12.3251L4.39985 14.1987C4.27786 14.3207 4.11808 14.3817 3.95828 14.3817Z" fill="black" fill-opacity="0.6"/>
<path d="M8.19703 12.5056H11.453C11.7978 12.5056 12.0776 12.2259 12.0776 11.8811C12.0776 11.5363 11.7978 11.2566 11.453 11.2566H8.19703C7.85224 11.2566 7.5725 11.5363 7.5725 11.8811C7.5725 12.2259 7.85224 12.5056 8.19703 12.5056Z" fill="black" fill-opacity="0.6"/>
<path fill-rule="evenodd" clip-rule="evenodd" d="M0.211102 2.71891C0.207067 2.66955 0.204478 2.6198 0.203377 2.56968C0.199313 2.52658 0.199313 2.48308 0.203785 2.43957C0.239158 1.0848 1.34591 0 2.70109 0H12.6818C13.1705 0.0170788 13.6438 0.186218 13.9991 0.537112C14.3602 0.893694 14.5586 1.36819 14.5586 1.87359V3.85552C15.2812 4.11559 15.7995 4.80796 15.7995 5.61914V18.5509C15.7865 19.3023 15.2051 19.9138 14.4773 19.9846C14.4334 19.9951 14.3887 20 14.3423 20H2.47502C1.89237 20.0008 1.33249 19.7747 0.905563 19.3625C0.468883 18.9412 0.222485 18.3728 0.211102 17.7629V2.71891ZM2.70962 5.01373H13.9512C13.9838 5.01373 14.0158 5.01123 14.047 5.00641C14.3334 5.06297 14.5505 5.3162 14.5505 5.61914V18.5395C14.5489 18.6501 14.4496 18.7428 14.3342 18.7428C14.3008 18.7428 14.2675 18.7452 14.235 18.7509H2.50592C2.25018 18.742 1.97044 18.655 1.77324 18.4647C1.57645 18.2744 1.46504 18.0166 1.46016 17.7515V4.67987C1.82816 4.89179 2.25491 5.01332 2.70962 5.01373ZM1.45402 2.42528C1.49054 1.75991 2.025 1.24907 2.70109 1.24907H12.6931C12.855 1.25801 13.0046 1.31046 13.1217 1.42593C13.2429 1.54548 13.3096 1.70486 13.3096 1.8736V3.74555H13.3014C13.2483 3.74555 13.1968 3.75218 13.1476 3.76466L2.70962 3.76386C2.06487 3.76386 1.5316 3.27921 1.46016 2.65729V2.51316C1.46016 2.48333 1.45807 2.45399 1.45402 2.42528Z" fill="black" fill-opacity="0.6"/>
</svg>
