<svg width="20" height="20" viewBox="0 0 20 20" fill="none" xmlns="http://www.w3.org/2000/svg">
<path fill-rule="evenodd" clip-rule="evenodd" d="M12.064 6.89756H18.546C19.3227 6.89756 19.9671 6.26696 19.9833 5.49152V5.46149L19.9493 1.42106C19.9493 1.03476 19.7975 0.673608 19.5232 0.403758C19.2497 0.136342 18.8958 0.0101471 18.5193 0L12.0388 0.0162304C11.2508 0.0162304 10.6097 0.657378 10.6097 1.45434V5.45986C10.6097 5.49963 10.6141 5.5394 10.6222 5.57875C10.6791 6.31566 11.3003 6.89756 12.064 6.89756ZM11.8644 5.46797C11.8644 5.43591 11.8619 5.40385 11.8562 5.3718V1.4458C11.8562 1.34152 11.935 1.26279 12.0405 1.26279L18.5322 1.24656L18.5444 1.24996C18.5991 1.26516 18.6295 1.27359 18.6499 1.29404C18.6743 1.31757 18.7027 1.35856 18.7027 1.42632L18.7368 5.47162C18.7311 5.56941 18.6451 5.65097 18.546 5.65097H12.0551C11.948 5.65097 11.8644 5.57064 11.8644 5.46797Z" fill="black" fill-opacity="0.6"/>
<path fill-rule="evenodd" clip-rule="evenodd" d="M1.47133 11.8891H7.95337C8.74627 11.8891 9.39107 11.248 9.39107 10.4591V10.4567L9.35779 1.46245C9.35779 0.677665 8.72964 0.038138 7.95255 0.025157C7.94768 0.0247497 7.94281 0.0247497 7.93754 0.0247497L1.4555 0.0162315C1.43554 0.0322532 1.40779 0.0306084 1.37962 0.0289388C1.36142 0.0278597 1.34303 0.0267701 1.32647 0.0304341C0.985602 0.0596456 0.671523 0.206949 0.430485 0.452043C0.162263 0.725135 0.0182085 1.08791 0.0251062 1.4734C0.0259206 1.50303 0.0287545 1.53225 0.0336245 1.56146V10.451C0.0336245 11.2415 0.659755 11.8729 1.47133 11.8891ZM1.2802 1.47057C1.2802 1.44866 1.27899 1.42634 1.27615 1.40443C1.28345 1.37439 1.29765 1.34802 1.31998 1.3257C1.34753 1.29777 1.44074 1.28212 1.53462 1.26636L1.55574 1.26281L7.92415 1.27133C8.02397 1.27133 8.11081 1.35857 8.11122 1.46489L8.14449 10.46C8.14368 10.5573 8.05481 10.6426 7.95337 10.6426H1.48391C1.36947 10.6401 1.2802 10.5565 1.2802 10.4429V1.47057Z" fill="black" fill-opacity="0.6"/>
<path fill-rule="evenodd" clip-rule="evenodd" d="M7.95338 19.987C7.91929 19.987 7.88521 19.9846 7.85153 19.9789L1.4612 19.9627C0.669509 19.9611 0.0251198 19.3191 0.0251198 18.5319V14.6371C0.0194354 14.6039 0.0166016 14.5698 0.0166016 14.5349C0.0166016 13.7468 0.657741 13.1057 1.44618 13.1057H7.91483C8.30154 13.1114 8.65133 13.2437 8.9228 13.509C9.19792 13.7793 9.34969 14.1404 9.34969 14.5268L9.39068 18.5489C9.39108 18.5546 9.39108 18.5603 9.39108 18.566V18.5806C9.37445 19.3564 8.73006 19.987 7.95338 19.987ZM1.26967 14.4846C1.27088 14.5008 1.2717 14.5178 1.2717 14.5349V18.5319C1.2717 18.6349 1.35569 18.7153 1.46282 18.7153L7.94648 18.7323C7.96393 18.7323 7.98138 18.7331 7.99883 18.7348C8.07756 18.7145 8.13924 18.6439 8.14451 18.5611L8.10312 14.5333C8.10312 14.4643 8.07431 14.4229 8.05036 14.3993C8.02683 14.3766 7.98666 14.3539 7.92823 14.3523H1.44619C1.35935 14.3523 1.29036 14.4066 1.26967 14.4846Z" fill="black" fill-opacity="0.6"/>
<path fill-rule="evenodd" clip-rule="evenodd" d="M12.0055 19.9967C12.0258 19.9992 12.0469 20 12.0672 20H12.0729L18.5192 19.9448C19.3056 19.9302 19.9452 19.2858 19.9452 18.5075V9.66259C19.9508 9.62851 19.9541 9.5932 19.9541 9.55709C19.9541 8.76418 19.3129 8.11939 18.5241 8.11939H12.0421C11.9942 8.11939 11.9471 8.12506 11.9017 8.13562C11.1672 8.21433 10.5999 8.83925 10.6129 9.58468C10.6133 9.61349 10.6161 9.6419 10.621 9.6703V18.5611C10.621 19.3532 11.2475 19.9846 11.9974 19.9959L12.0055 19.9967ZM11.8676 9.58184C11.8676 9.56034 11.866 9.53842 11.8635 9.51691C11.8846 9.42561 11.9706 9.37569 12.0542 9.37408C12.0835 9.37327 12.1127 9.37083 12.1419 9.36596H18.5241C18.6093 9.36596 18.6791 9.42358 18.701 9.50474C18.6994 9.52178 18.6986 9.53924 18.6986 9.55709V18.5075C18.6986 18.609 18.6061 18.6966 18.5022 18.6982L12.0705 18.7534C11.9528 18.7518 11.8676 18.6698 11.8676 18.553V9.58184Z" fill="black" fill-opacity="0.6"/>
</svg>
