<svg width="20" height="20" viewBox="0 0 20 20" fill="none" xmlns="http://www.w3.org/2000/svg">
<path d="M0.26896 0.28132C0.105804 0.437386 0.0114454 0.661482 0.0114454 0.885577V10.4306C0.00275092 10.9079 0.394001 11.2984 0.872196 11.2984H7.81906C8.29726 11.2984 8.68851 10.9079 8.68851 10.4306V0.885577C8.68851 0.399647 8.29726 0.0178438 7.81906 0.0178438L0.863501 0.000489172C0.628751 -0.00732043 0.41139 0.0785852 0.246195 0.243455L0.26896 0.28132Z" fill="black"/>
<path d="M12.1924 0.0438559L19.1479 0.0351785L19.1306 0.00914653C19.6087 0.00914653 20 0.390949 20 0.87688V5.24071C20 5.71796 19.6087 6.10844 19.1306 6.10844L19.1392 6.10931H12.1837C11.6968 6.10931 11.3142 5.72751 11.3142 5.25026V0.911589C11.3142 0.425659 11.6968 0.0438559 12.1837 0.0438559H12.1924Z" fill="black"/>
<path d="M8.45984 19.7501H8.45115L8.45475 19.7463L8.45984 19.7501Z" fill="black"/>
<path d="M8.70329 19.134C8.70329 19.3579 8.60911 19.5817 8.45475 19.7463L8.42506 19.7241C8.25987 19.8889 8.04251 19.9844 7.81645 19.9844L0.860893 19.9757C0.382698 19.9757 -0.00855229 19.5852 0.000142162 19.108V14.7953C0.000142162 14.3094 0.382698 13.9276 0.869587 13.9276H7.83384C8.31204 13.9276 8.70329 14.3094 8.70329 14.7953V19.134Z" fill="black"/>
<path d="M19.1479 8.72814L19.1219 8.70298H19.1306C19.6087 8.70298 20 9.08478 20 9.57071V19.1149C20 19.5922 19.6087 19.9826 19.1306 19.9826L12.1837 20C11.6968 20 11.3142 19.6182 11.3142 19.1409V9.59588C11.3142 9.10995 11.6968 8.72814 12.1837 8.72814H19.1479Z" fill="black"/>
</svg>
