<svg width="18" height="18" viewBox="0 0 18 18" fill="none" xmlns="http://www.w3.org/2000/svg">
<path fill-rule="evenodd" clip-rule="evenodd" d="M13.9638 0.948742L7.06384 7.84942C6.98017 7.9331 6.92592 8.04167 6.90922 8.15882L6.52295 10.8701C6.49869 11.0403 6.55598 11.2121 6.67758 11.3337C6.79919 11.4553 6.97094 11.5126 7.1412 11.4883L9.85243 11.102C9.96999 11.0853 10.0789 11.0307 10.1627 10.9466L16.2346 4.84854C16.2743 4.82534 16.3118 4.79668 16.3459 4.76259C16.3806 4.72791 16.4097 4.68973 16.4331 4.64919L17.1047 3.97462L17.1061 3.97324C17.9495 3.12014 17.9527 1.73351 17.1039 0.884751L17.1017 0.882549C16.2482 0.0387996 14.8599 0.0356101 14.011 0.894254C13.9939 0.911522 13.9782 0.929733 13.9638 0.948742ZM16.3287 3.20463L15.9457 3.58929L14.4075 2.05114L14.7936 1.66505C14.8085 1.65013 14.8224 1.63448 14.8353 1.61821C15.2577 1.23944 15.9183 1.25101 16.332 1.65892C16.7501 2.07825 16.753 2.77475 16.3292 3.20405L16.3287 3.20463ZM15.1743 4.36398L13.6345 2.82421L7.96582 8.4935L7.70798 10.3033L9.51709 10.0455L15.1743 4.36398Z" fill="black" fill-opacity="0.87"/>
<path d="M1.35372 5.17118C1.35011 4.87219 1.59842 4.62386 1.89309 4.62386H7.35927C7.66116 4.62386 7.90589 4.37913 7.90589 4.07724C7.90589 3.77535 7.66116 3.53062 7.35927 3.53062H1.89309C0.993669 3.53062 0.251552 4.27153 0.260517 5.18073V16.1101C0.260517 17.0133 0.995755 17.7391 1.89379 17.75L1.90037 17.75H12.84C13.7396 17.75 14.4799 17.0097 14.4799 16.1101V10.644C14.4799 10.3421 14.2352 10.0973 13.9333 10.0973C13.6314 10.0973 13.3867 10.3421 13.3867 10.644V16.1101C13.3867 16.4059 13.1358 16.6568 12.84 16.6568H1.90416C1.5937 16.6515 1.35375 16.4014 1.35375 16.1101V5.17777L1.35372 5.17118Z" fill="black" fill-opacity="0.87"/>
</svg>
