<svg width="16" height="16" viewBox="0 0 16 16" fill="none" xmlns="http://www.w3.org/2000/svg">
<path d="M8.41666 1.33335C8.41666 1.10324 8.23011 0.916687 7.99999 0.916687C7.76987 0.916687 7.58332 1.10324 7.58332 1.33335V7.58335H1.33332C1.1032 7.58335 0.916656 7.7699 0.916656 8.00002C0.916656 8.23014 1.1032 8.41669 1.33332 8.41669H7.58332V14.6667C7.58332 14.8968 7.76987 15.0834 7.99999 15.0834C8.23011 15.0834 8.41666 14.8968 8.41666 14.6667V8.41669H14.6667C14.8968 8.41669 15.0833 8.23014 15.0833 8.00002C15.0833 7.7699 14.8968 7.58335 14.6667 7.58335H8.41666V1.33335Z" fill="black" fill-opacity="0.6"/>
</svg>
