<svg width="32" height="32" viewBox="0 0 32 32" fill="none" xmlns="http://www.w3.org/2000/svg">
<path d="M16.0002 20.1667C12.324 20.1667 9.33354 17.1763 9.33354 13.5001C9.33354 9.82387 12.324 6.83341 16.0002 6.83341C19.6764 6.83341 22.6669 9.82387 22.6669 13.5001C22.6669 17.1763 19.6764 20.1667 16.0002 20.1667ZM16.0002 8.50008C13.243 8.50008 11.0002 10.7429 11.0002 13.5001C11.0002 16.2572 13.243 18.5001 16.0002 18.5001C18.7574 18.5001 21.0002 16.2572 21.0002 13.5001C21.0002 10.7429 18.7574 8.50008 16.0002 8.50008Z" fill="#605EFF"/>
<path d="M23.6814 26.6956C23.4677 26.6956 23.2539 26.6131 23.09 26.4504C19.2012 22.5398 12.8557 22.5181 8.94617 26.3983C8.9147 26.4298 8.8816 26.458 8.8458 26.4829C8.52354 26.7553 8.03959 26.7477 7.72981 26.4504C7.39833 26.1325 7.38368 25.6094 7.70051 25.2763C7.7271 25.2492 7.76345 25.2167 7.80359 25.1841C12.3685 20.6897 19.7459 20.7245 24.2728 25.2742C24.5972 25.6008 24.595 26.1281 24.2695 26.4536C24.1068 26.6153 23.8941 26.6956 23.6814 26.6956Z" fill="#605EFF"/>
<path d="M16.0002 29.3334C8.64831 29.3334 2.66687 23.3525 2.66687 16.0001C2.66687 8.64819 8.64831 2.66675 16.0002 2.66675C23.3526 2.66675 29.3335 8.64819 29.3335 16.0001C29.3335 23.3525 23.3526 29.3334 16.0002 29.3334ZM16.0002 4.33341C9.56737 4.33341 4.33354 9.56725 4.33354 16.0001C4.33354 22.4335 9.56737 27.6667 16.0002 27.6667C22.4336 27.6667 27.6669 22.4335 27.6669 16.0001C27.6669 9.56725 22.4336 4.33341 16.0002 4.33341Z" fill="#605EFF"/>
</svg>
