<svg width="28" height="28" viewBox="0 0 28 28" fill="none" xmlns="http://www.w3.org/2000/svg">
<path d="M14 18.1666C10.3238 18.1666 7.33334 15.1762 7.33334 11.5C7.33334 7.82375 10.3238 4.83329 14 4.83329C17.6762 4.83329 20.6667 7.82375 20.6667 11.5C20.6667 15.1762 17.6762 18.1666 14 18.1666ZM14 6.49996C11.2428 6.49996 9 8.74279 9 11.5C9 14.2571 11.2428 16.5 14 16.5C16.7572 16.5 19 14.2571 19 11.5C19 8.74279 16.7572 6.49996 14 6.49996Z" fill="#605EFF"/>
<path d="M21.6812 24.6955C21.4675 24.6955 21.2537 24.613 21.0898 24.4503C17.201 20.5397 10.8555 20.518 6.94597 24.3982C6.91451 24.4296 6.8814 24.4579 6.8456 24.4828C6.52334 24.7552 6.03939 24.7476 5.72962 24.4503C5.39813 24.1323 5.38348 23.6093 5.70032 23.2762C5.7269 23.2491 5.76325 23.2165 5.80339 23.184C10.3683 18.6896 17.7457 18.7243 22.2726 23.274C22.597 23.6006 22.5948 24.128 22.2693 24.4535C22.1066 24.6152 21.8939 24.6955 21.6812 24.6955Z" fill="#605EFF"/>
<path d="M14 27.3333C6.64812 27.3333 0.666672 21.3524 0.666672 14C0.666672 6.64807 6.64812 0.666626 14 0.666626C21.3524 0.666626 27.3333 6.64807 27.3333 14C27.3333 21.3524 21.3524 27.3333 14 27.3333ZM14 2.33329C7.56717 2.33329 2.33334 7.56713 2.33334 14C2.33334 20.4333 7.56717 25.6666 14 25.6666C20.4334 25.6666 25.6667 20.4333 25.6667 14C25.6667 7.56713 20.4334 2.33329 14 2.33329Z" fill="#605EFF"/>
</svg>
