<svg width="20" height="20" viewBox="0 0 20 20" fill="none" xmlns="http://www.w3.org/2000/svg">
<path d="M10 13.125C7.24284 13.125 5 10.8822 5 8.125C5 5.36784 7.24284 3.125 10 3.125C12.7572 3.125 15 5.36784 15 8.125C15 10.8822 12.7572 13.125 10 13.125ZM10 4.375C7.93212 4.375 6.25 6.05712 6.25 8.125C6.25 10.1929 7.93212 11.875 10 11.875C12.0679 11.875 13.75 10.1929 13.75 8.125C13.75 6.05712 12.0679 4.375 10 4.375Z" fill="white"/>
<path d="M15.7609 18.0217C15.6006 18.0217 15.4403 17.9598 15.3174 17.8377C12.4007 14.9048 7.6416 14.8885 4.70948 17.7987C4.68587 17.8223 4.66105 17.8434 4.6342 17.8621C4.3925 18.0664 4.02954 18.0607 3.79721 17.8377C3.54859 17.5993 3.53761 17.207 3.77523 16.9572C3.79518 16.9369 3.82243 16.9124 3.85254 16.888C7.27621 13.5173 12.8092 13.5433 16.2044 16.9556C16.4478 17.2005 16.4461 17.596 16.202 17.8402C16.0799 17.9614 15.9204 18.0217 15.7609 18.0217Z" fill="white"/>
<path d="M10 20C4.48608 20 0 15.5143 0 10C0 4.48608 4.48608 0 10 0C15.5143 0 20 4.48608 20 10C20 15.5143 15.5143 20 10 20ZM10 1.25C5.17537 1.25 1.25 5.17537 1.25 10C1.25 14.825 5.17537 18.75 10 18.75C14.825 18.75 18.75 14.825 18.75 10C18.75 5.17537 14.825 1.25 10 1.25Z" fill="white"/>
</svg>
