<svg width="24" height="24" viewBox="0 0 24 24" fill="none" xmlns="http://www.w3.org/2000/svg">
<path d="M12 15.125C9.24284 15.125 7 12.8822 7 10.125C7 7.36784 9.24284 5.125 12 5.125C14.7572 5.125 17 7.36784 17 10.125C17 12.8822 14.7572 15.125 12 15.125ZM12 6.375C9.93212 6.375 8.25 8.05712 8.25 10.125C8.25 12.1929 9.93212 13.875 12 13.875C14.0679 13.875 15.75 12.1929 15.75 10.125C15.75 8.05712 14.0679 6.375 12 6.375Z" fill="white"/>
<path d="M17.7609 20.0216C17.6006 20.0216 17.4403 19.9598 17.3174 19.8377C14.4007 16.9048 9.6416 16.8885 6.70947 19.7987C6.68587 19.8223 6.66105 19.8434 6.6342 19.8621C6.3925 20.0664 6.02954 20.0607 5.79721 19.8377C5.54859 19.5993 5.53761 19.207 5.77523 18.9572C5.79518 18.9369 5.82243 18.9124 5.85254 18.888C9.27621 15.5173 14.8092 15.5433 18.2044 18.9556C18.4478 19.2005 18.4461 19.596 18.202 19.8402C18.0799 19.9614 17.9204 20.0216 17.7609 20.0216Z" fill="white"/>
<path d="M12 22C6.48608 22 2 17.5143 2 12C2 6.48608 6.48608 2 12 2C17.5143 2 22 6.48608 22 12C22 17.5143 17.5143 22 12 22ZM12 3.25C7.17538 3.25 3.25 7.17538 3.25 12C3.25 16.825 7.17538 20.75 12 20.75C16.825 20.75 20.75 16.825 20.75 12C20.75 7.17538 16.825 3.25 12 3.25Z" fill="white"/>
</svg>
