<svg width="40" height="40" viewBox="0 0 40 40" fill="none" xmlns="http://www.w3.org/2000/svg">
<path d="M14.1065 17.6026C14.1065 18.3077 13.9968 18.8483 13.7774 19.2244C13.558 19.5848 13.2055 19.8433 12.7197 20C13.2055 20.1567 13.558 20.4231 13.7774 20.7991C13.9968 21.1595 14.1065 21.6923 14.1065 22.3974V26.8632C14.1065 27.443 14.2475 27.8818 14.5296 28.1795C14.8273 28.4929 15.266 28.6496 15.8458 28.6496H16.3394V31H15.1642C13.8479 31 12.8529 30.6709 12.1791 30.0128C11.5053 29.3704 11.1684 28.4224 11.1684 27.1688V22.3269C11.1684 21.5748 10.8159 21.1987 10.1108 21.1987H9.33511V18.8013H10.1108C10.8159 18.8013 11.1684 18.4252 11.1684 17.6731V12.8312C11.1684 11.5776 11.5053 10.6296 12.1791 9.98718C12.8529 9.32906 13.8479 9 15.1642 9H16.3394V11.3504H15.8458C15.266 11.3504 14.8273 11.5071 14.5296 11.8205C14.2475 12.1182 14.1065 12.557 14.1065 13.1368V17.6026Z" fill="white"/>
<path d="M30.6649 18.8013V21.1987H29.8657C29.5367 21.1987 29.2781 21.2927 29.0901 21.4808C28.9177 21.6688 28.8315 21.9509 28.8315 22.3269V27.1688C28.8315 28.4224 28.4868 29.3704 27.7974 30.0128C27.1236 30.6709 26.1286 31 24.8123 31H23.6371V28.6496H24.1307C24.7261 28.6496 25.1649 28.4929 25.4469 28.1795C25.7446 27.8818 25.8935 27.443 25.8935 26.8632V22.3974C25.8935 21.6766 25.9954 21.136 26.1991 20.7756C26.4184 20.4152 26.771 20.1567 27.2568 20C26.771 19.8433 26.4184 19.5848 26.1991 19.2244C25.9954 18.864 25.8935 18.3234 25.8935 17.6026V13.1368C25.8935 12.557 25.7446 12.1182 25.4469 11.8205C25.1649 11.5071 24.7261 11.3504 24.1307 11.3504H23.6371V9H24.8123C26.1286 9 27.1236 9.32906 27.7974 9.98718C28.4868 10.6296 28.8315 11.5776 28.8315 12.8312V17.6731C28.8315 18.0491 28.9177 18.3312 29.0901 18.5192C29.2781 18.7073 29.5367 18.8013 29.8657 18.8013H30.6649Z" fill="white"/>
<path fill-rule="evenodd" clip-rule="evenodd" d="M4 0C1.79086 0 0 1.79086 0 4V36C0 38.2091 1.79086 40 4 40H36C38.2091 40 40 38.2091 40 36V4C40 1.79086 38.2091 0 36 0H4ZM13.7774 19.2244C13.9968 18.8483 14.1065 18.3077 14.1065 17.6026V13.1368C14.1065 12.557 14.2475 12.1182 14.5296 11.8205C14.8273 11.5071 15.266 11.3504 15.8458 11.3504H16.3394V9H15.1642C13.8479 9 12.8529 9.32906 12.1791 9.98718C11.5053 10.6296 11.1684 11.5776 11.1684 12.8312V17.6731C11.1684 18.4252 10.8159 18.8013 10.1108 18.8013H9.33511V21.1987H10.1108C10.8159 21.1987 11.1684 21.5748 11.1684 22.3269V27.1688C11.1684 28.4224 11.5053 29.3704 12.1791 30.0128C12.8529 30.6709 13.8479 31 15.1642 31H16.3394V28.6496H15.8458C15.266 28.6496 14.8273 28.4929 14.5296 28.1795C14.2475 27.8818 14.1065 27.443 14.1065 26.8632V22.3974C14.1065 21.6923 13.9968 21.1595 13.7774 20.7991C13.558 20.4231 13.2055 20.1567 12.7197 20C13.2055 19.8433 13.558 19.5848 13.7774 19.2244ZM30.6649 21.1987V18.8013H29.8657C29.5367 18.8013 29.2781 18.7073 29.0901 18.5192C28.9177 18.3312 28.8315 18.0491 28.8315 17.6731V12.8312C28.8315 11.5776 28.4868 10.6296 27.7974 9.98718C27.1236 9.32906 26.1285 9 24.8123 9H23.6371V11.3504H24.1307C24.7261 11.3504 25.1649 11.5071 25.4469 11.8205C25.7446 12.1182 25.8935 12.557 25.8935 13.1368V17.6026C25.8935 18.3234 25.9954 18.864 26.1991 19.2244C26.4184 19.5848 26.771 19.8433 27.2568 20C26.771 20.1567 26.4184 20.4152 26.1991 20.7756C25.9954 21.136 25.8935 21.6766 25.8935 22.3974V26.8632C25.8935 27.443 25.7446 27.8818 25.4469 28.1795C25.1649 28.4929 24.7261 28.6496 24.1307 28.6496H23.6371V31H24.8123C26.1285 31 27.1236 30.6709 27.7974 30.0128C28.4868 29.3704 28.8315 28.4224 28.8315 27.1688V22.3269C28.8315 21.9509 28.9177 21.6688 29.0901 21.4808C29.2781 21.2927 29.5367 21.1987 29.8657 21.1987H30.6649Z" fill="#9E9E9E"/>
</svg>
