<svg width="18" height="18" viewBox="0 0 18 18" fill="none" xmlns="http://www.w3.org/2000/svg">
<path fill-rule="evenodd" clip-rule="evenodd" d="M14.7271 13.1799C15.0142 13.1799 15.247 13.4126 15.247 13.6997V14.7394C15.247 15.5949 14.5429 16.299 13.6874 16.299H10.5683C10.2812 16.299 10.0485 16.0662 10.0485 15.7791C10.0485 15.492 10.2812 15.2593 10.5683 15.2593H13.6874C13.9687 15.2593 14.2073 15.0207 14.2073 14.7394V13.6997C14.2073 13.4126 14.44 13.1799 14.7271 13.1799Z" fill="black" fill-opacity="0.87"/>
<path fill-rule="evenodd" clip-rule="evenodd" d="M13.6895 3.82244C13.9586 3.82416 14.1941 4.05377 14.1941 4.34236V5.38206C14.1941 5.66917 14.4269 5.90192 14.714 5.90192C15.0011 5.90192 15.2338 5.66917 15.2338 5.38206V4.34236C15.2338 3.48466 14.5337 2.77422 13.6714 2.7828H10.5621C10.275 2.7828 10.0422 3.01554 10.0422 3.30265C10.0422 3.58976 10.275 3.8225 10.5621 3.8225H13.6812C13.6839 3.8225 13.6867 3.82248 13.6895 3.82244Z" fill="black" fill-opacity="0.87"/>
<path fill-rule="evenodd" clip-rule="evenodd" d="M7.93715 1.71048L1.71953 3.24485C1.71964 3.24932 1.7197 3.2538 1.7197 3.25829V15.3924C1.72108 15.3939 1.72521 15.3977 1.7336 15.3991C1.7563 15.4027 1.77864 15.4079 1.80048 15.4145L7.69211 16.259C7.74358 16.2421 7.79811 16.2331 7.85398 16.2331L7.85739 16.2331C7.86924 16.2331 7.89848 16.2329 7.93715 16.2362V1.71048ZM8.17565 17.2513C8.07271 17.3171 7.94765 17.3459 7.8218 17.3279L1.58356 16.4337C1.54695 16.4285 1.51123 16.4194 1.47693 16.4067C1.0258 16.2929 0.679994 15.8916 0.679994 15.3924V3.33598C0.676185 3.31288 0.67392 3.28944 0.673263 3.26579C0.659003 2.75241 1.01707 2.34125 1.48094 2.23283L7.66837 0.705909C7.68487 0.700411 7.70178 0.695692 7.71907 0.691801C8.28371 0.564757 8.83349 0.92993 8.95725 1.47995L8.95983 1.49211C8.97727 1.5793 8.97699 1.66012 8.97687 1.69205C8.97687 1.69429 8.97686 1.69629 8.97686 1.69804V16.2539C8.97686 16.2678 8.97632 16.2816 8.97525 16.2952C8.94841 16.76 8.61983 17.1458 8.17565 17.2513Z" fill="black" fill-opacity="0.87"/>
<path fill-rule="evenodd" clip-rule="evenodd" d="M14.3595 7.09319C14.5626 6.89018 14.8917 6.89018 15.0947 7.09319L17.1741 9.17261C17.3228 9.32129 17.3673 9.54488 17.2868 9.73914C17.2064 9.9334 17.0168 10.0601 16.8066 10.0601H11.0882C10.8011 10.0601 10.5683 9.82731 10.5683 9.5402C10.5683 9.25309 10.8011 9.02035 11.0882 9.02035H15.5515L14.3595 7.82838C14.1565 7.62536 14.1565 7.29621 14.3595 7.09319Z" fill="black" fill-opacity="0.87"/>
<path fill-rule="evenodd" clip-rule="evenodd" d="M17.1748 9.17053C17.3779 9.37354 17.3779 9.7027 17.1748 9.90571L15.0954 11.9851C14.8924 12.1881 14.5633 12.1881 14.3602 11.9851C14.1572 11.7821 14.1572 11.453 14.3602 11.2499L16.4397 9.17053C16.6427 8.96751 16.9718 8.96751 17.1748 9.17053Z" fill="black" fill-opacity="0.87"/>
<path fill-rule="evenodd" clip-rule="evenodd" d="M6.22835 8.22071C6.57583 8.26794 6.85078 8.54294 6.89792 8.89045C6.9072 8.92952 6.912 8.96983 6.912 9.01064C6.912 9.4568 6.55277 9.77368 6.16165 9.79324C6.153 9.79367 6.14434 9.79389 6.13569 9.79389C5.6939 9.79389 5.35937 9.4341 5.35937 9.01757C5.35937 8.70409 5.53788 8.45108 5.78603 8.32611C5.79994 8.31472 5.81498 8.30362 5.83123 8.293C5.92304 8.23305 6.02366 8.20834 6.11576 8.20834C6.15698 8.20834 6.19475 8.21325 6.22835 8.22071Z" fill="black" fill-opacity="0.87"/>
</svg>
