<svg width="16" height="16" viewBox="0 0 16 16" fill="none" xmlns="http://www.w3.org/2000/svg">
<path fill-rule="evenodd" clip-rule="evenodd" d="M16 0H0V16H16V0ZM5.51097 7.68974C5.59872 7.53932 5.64259 7.32308 5.64259 7.04103V5.2547C5.64259 5.02279 5.699 4.84729 5.81182 4.72821C5.93091 4.60285 6.10641 4.54017 6.33832 4.54017H6.53576V3.6H6.06567C5.53917 3.6 5.14117 3.73162 4.87165 3.99487C4.60214 4.25185 4.46738 4.63105 4.46738 5.13248V7.06923C4.46738 7.37009 4.32635 7.52051 4.0443 7.52051H3.73405V8.47949H4.0443C4.32635 8.47949 4.46738 8.62992 4.46738 8.93077V10.8675C4.46738 11.3689 4.60214 11.7481 4.87165 12.0051C5.14117 12.2684 5.53917 12.4 6.06567 12.4H6.53576V11.4598H6.33832C6.10641 11.4598 5.93091 11.3972 5.81182 11.2718C5.699 11.1527 5.64259 10.9772 5.64259 10.7453V8.95898C5.64259 8.67692 5.59872 8.46382 5.51097 8.31966C5.42322 8.16923 5.28219 8.06268 5.08789 8C5.28219 7.93732 5.42322 7.8339 5.51097 7.68974ZM11.9463 8.47949H12.266V7.52051H11.9463C11.8147 7.52051 11.7113 7.48291 11.636 7.40769C11.5671 7.33248 11.5326 7.21966 11.5326 7.06923V5.13248C11.5326 4.63105 11.3947 4.25185 11.1189 3.99487C10.8494 3.73162 10.4514 3.6 9.92492 3.6H9.45484V4.54017H9.65227C9.89045 4.54017 10.066 4.60285 10.1788 4.72821C10.2979 4.84729 10.3574 5.02279 10.3574 5.2547V7.04103C10.3574 7.32935 10.3981 7.54558 10.4796 7.68974C10.5674 7.8339 10.7084 7.93732 10.9027 8C10.7084 8.06268 10.5674 8.1661 10.4796 8.31026C10.3981 8.45442 10.3574 8.67066 10.3574 8.95898V10.7453C10.3574 10.9772 10.2979 11.1527 10.1788 11.2718C10.066 11.3972 9.89045 11.4598 9.65227 11.4598H9.45484V12.4H9.92492C10.4514 12.4 10.8494 12.2684 11.1189 12.0051C11.3947 11.7481 11.5326 11.3689 11.5326 10.8675V8.93077C11.5326 8.78034 11.5671 8.66752 11.636 8.59231C11.7113 8.51709 11.8147 8.47949 11.9463 8.47949Z" fill="#9E9E9E"/>
</svg>
