<svg width="20" height="20" viewBox="0 0 20 20" fill="none" xmlns="http://www.w3.org/2000/svg">
<path d="M19.4322 0.53689C19.0759 0.185466 18.6098 0.000408167 18.1144 0H1.88235C0.848842 0 0.00811768 0.840724 0.00811768 1.88238V14.3773C0.00811768 15.399 0.845585 16.2393 1.89089 16.2515H3.76513V19.3753C3.76513 19.612 3.89894 19.8284 4.11045 19.9341C4.19871 19.978 4.2947 20 4.38988 20C4.52247 20 4.65466 19.9577 4.76489 19.8747L9.59609 16.2515H18.1339C18.1778 16.2515 18.2209 16.2466 18.2624 16.2377C19.2288 16.1637 19.9918 15.3543 19.9918 14.3692V1.87425C19.9918 1.36826 19.7934 0.893595 19.4322 0.53689ZM18.7424 14.3691C18.7424 14.7019 18.4666 14.9833 18.1355 14.9939C18.0916 14.989 18.0476 14.9947 18.0037 15.002H9.38785C9.25281 15.002 9.12103 15.046 9.01283 15.1273L5.01463 18.1258V15.6268C5.01463 15.2819 4.73479 15.002 4.38988 15.002H1.88968C1.5411 14.998 1.25761 14.7173 1.25761 14.3773V1.87424C1.25761 1.52974 1.53785 1.24949 1.88235 1.24949H18.1257C18.2876 1.25478 18.4373 1.31009 18.5536 1.42601C18.6756 1.546 18.7423 1.70503 18.7423 1.87424L18.7424 14.3691Z" fill="black" fill-opacity="0.6"/>
<path d="M10.004 2.50711C8.28152 2.50711 6.88032 3.90832 6.88032 5.63084C6.88032 5.97575 7.16016 6.25559 7.50506 6.25559H7.5136C7.85851 6.25559 8.13428 5.97575 8.13428 5.63084C8.13428 5.60928 8.13307 5.58813 8.13103 5.56739C8.16438 4.56316 8.99168 3.7566 10.004 3.7566C11.0331 3.7566 11.8701 4.59733 11.8701 5.62596C11.8644 6.38981 11.3991 7.07556 10.7036 7.35946C10.676 7.36516 10.6491 7.37247 10.6223 7.38184C9.86128 7.64824 9.35855 8.36125 9.37116 9.14625V9.3545C9.37116 9.69941 9.651 9.97925 9.99591 9.97925C10.3408 9.97925 10.6207 9.69941 10.6207 9.3545V9.13608C10.6166 8.90424 10.7541 8.69234 10.968 8.58943C10.9908 8.58414 11.0144 8.57722 11.0372 8.56909C12.2728 8.13266 13.1099 6.95354 13.1196 5.63084C13.1196 3.90832 11.7221 2.50711 10.004 2.50711Z" fill="black" fill-opacity="0.6"/>
<path d="M9.97274 11.2413C9.89383 11.243 9.81858 11.2601 9.74943 11.2885C9.35368 11.3984 9.06286 11.7595 9.06286 12.1866C9.06286 12.7007 9.48058 13.1188 10.0248 13.1188C10.0256 13.1188 10.026 13.1188 10.0264 13.1188C10.5328 13.0944 10.929 12.6812 10.929 12.1785C10.929 11.9271 10.8257 11.6823 10.6467 11.5065C10.4653 11.33 10.2322 11.243 9.97274 11.2413Z" fill="black" fill-opacity="0.6"/>
</svg>
