<?xml version="1.0" encoding="utf-8"?>
<!-- Generator: Adobe Illustrator 24.0.3, SVG Export Plug-In . SVG Version: 6.00 Build 0)  -->
<svg version="1.1" id="Layer_1" xmlns="http://www.w3.org/2000/svg" xmlns:xlink="http://www.w3.org/1999/xlink" x="0px" y="0px"
	 viewBox="0 0 20 20" style="enable-background:new 0 0 20 20;" xml:space="preserve">
<style type="text/css">
	.st0{fill-rule:evenodd;clip-rule:evenodd;fill:#605EFF;}
</style>
<path class="st0" d="M20,14.4c0,1-0.8,1.8-1.7,1.9c0,0-0.1,0-0.1,0H9.6l-4.8,3.6C4.6,20,4.3,20,4.1,19.9c-0.2-0.1-0.3-0.3-0.3-0.6
	v-3.1l-1.9,0c-1,0-1.9-0.8-1.9-1.9V1.9C0,0.8,0.8,0,1.9,0h16.2c1,0,1.9,0.8,1.9,1.9V14.4z M8.1,5.5C8.1,5.6,8.1,5.6,8.1,5.5
	c0,0.4-0.3,0.7-0.6,0.7h0C7.2,6.3,6.9,6,6.9,5.6c0-1.7,1.4-3.1,3.1-3.1c1.7,0,3.1,1.4,3.1,3.1v0c0,1.3-0.8,2.5-2.1,2.9
	c0,0,0,0-0.1,0c-0.2,0.1-0.4,0.3-0.3,0.5l0,0v0.2c0,0.3-0.3,0.6-0.6,0.6c-0.3,0-0.6-0.3-0.6-0.6V9.2c0-0.8,0.5-1.5,1.3-1.8
	c0,0,0.1,0,0.1,0c0.7-0.3,1.2-1,1.2-1.7c0-1-0.8-1.9-1.9-1.9C9,3.8,8.2,4.5,8.1,5.5z M10.9,12.2c0-0.5-0.4-0.9-1-0.9
	c-0.1,0-0.2,0-0.2,0c-0.4,0.1-0.7,0.5-0.7,0.9c0,0.5,0.4,0.9,0.9,0.9c0,0,0,0,0,0C10.5,13.1,10.9,12.7,10.9,12.2z"/>
</svg>
