<svg width="20" height="20" viewBox="0 0 20 20" fill="none" xmlns="http://www.w3.org/2000/svg">
<path fill-rule="evenodd" clip-rule="evenodd" d="M8.07084 0.00901048C7.03416 0.0224278 6.00917 0.233093 5.05072 0.630093C4.05971 1.04058 3.15926 1.64225 2.40077 2.40073C1.64228 3.15922 1.04062 4.05968 0.630129 5.05069C0.219638 6.0417 0.00836182 7.10386 0.00836182 8.17652C0.00836182 9.24918 0.219638 10.3113 0.630129 11.3024C1.04062 12.2934 1.64228 13.1938 2.40077 13.9523C3.15926 14.7108 4.05971 15.3125 5.05072 15.7229C6.04173 16.1334 7.10389 16.3447 8.17656 16.3447C10.1319 16.3447 12.015 15.644 13.4901 14.3815L18.9257 19.8171C19.1695 20.061 19.5649 20.061 19.8088 19.8171C20.0527 19.5732 20.0527 19.1778 19.8088 18.9339L14.3742 13.4993C15.6439 12.0223 16.3489 10.1336 16.3489 8.17236C16.3489 6.00491 15.4879 3.92624 13.9553 2.39363C12.4227 0.861014 10.344 0 8.17656 0C8.14089 0 8.10553 0.0030517 8.07084 0.00901048ZM8.27397 1.24964C8.24195 1.2547 8.20938 1.25729 8.17656 1.25729C7.26791 1.25729 6.36816 1.43626 5.52868 1.78398C4.6892 2.1317 3.92643 2.64137 3.28392 3.28388C2.64141 3.92639 2.13174 4.68916 1.78402 5.52864C1.43629 6.36812 1.25732 7.26787 1.25732 8.17652C1.25732 9.08517 1.43629 9.98491 1.78402 10.8244C2.13174 11.6639 2.64141 12.4266 3.28392 13.0692C3.92643 13.7117 4.6892 14.2213 5.52868 14.5691C6.36816 14.9168 7.26791 15.0958 8.17656 15.0958C10.0128 15.0958 11.7737 14.3663 13.0721 13.0679C14.3705 11.7695 15.1 10.0086 15.1 8.17236C15.1 6.33616 14.3705 4.57516 13.0721 3.27678C11.7967 2.00136 10.0749 1.27495 8.27397 1.24964Z" fill="black" fill-opacity="0.6"/>
</svg>
