<svg width="16" height="18" viewBox="0 0 16 18" fill="none" xmlns="http://www.w3.org/2000/svg">
<path d="M8.00335 8.99984C9.11623 8.99984 10.1626 8.56649 10.9493 7.77948C11.7367 6.9928 12.17 5.94639 12.17 4.83317C12.17 3.71996 11.7367 2.67355 10.9493 1.88687C10.1626 1.09985 9.11623 0.666504 8.00335 0.666504C6.89082 0.666504 5.8444 1.09985 5.05705 1.88687C4.27004 2.67422 3.83669 3.72064 3.83669 4.83317C3.83669 5.94571 4.27004 6.99212 5.05705 7.77948C5.8444 8.56649 6.89082 8.99984 8.00335 8.99984ZM5.79354 2.62336C6.38389 2.03335 7.16887 1.70817 8.00335 1.70817C8.83818 1.70817 9.62282 2.03335 10.2128 2.62336C10.8035 3.21371 11.1284 3.99834 11.1284 4.83317C11.1284 5.668 10.8035 6.45264 10.2128 7.04298C9.62282 7.63299 8.83818 7.95817 8.00335 7.95817C7.16887 7.95817 6.38389 7.63299 5.79354 7.04298C5.20354 6.45264 4.87835 5.66766 4.87835 4.83317C4.87835 3.99868 5.20354 3.21371 5.79354 2.62336Z" fill="black" fill-opacity="0.87"/>
<path d="M13.1486 11.642C11.7699 10.2667 9.91579 9.51864 7.99657 9.51389C6.04921 9.51389 4.21815 10.2734 2.84113 11.6528C1.46445 13.0322 0.708292 14.8646 0.711681 16.813C0.712369 17.1006 0.94532 17.3332 1.23252 17.3332H1.23354C1.52108 17.3325 1.75404 17.0992 1.75335 16.8117C1.75031 15.1413 2.39863 13.5707 3.57865 12.3886C4.75866 11.2066 6.32761 10.5556 7.99759 10.5556C8.00132 10.5556 8.00505 10.5556 8.00912 10.5556C9.67097 10.5556 11.2341 11.2032 12.4128 12.3792C13.5955 13.5598 14.2466 15.1291 14.2466 16.7988C14.2466 17.0863 14.4799 17.3196 14.7674 17.3196C15.0549 17.3196 15.2882 17.0863 15.2882 16.7988C15.2882 14.8504 14.528 13.0193 13.1486 11.642Z" fill="black" fill-opacity="0.87"/>
</svg>
