<svg width="24" height="24" viewBox="0 0 24 24" fill="none" xmlns="http://www.w3.org/2000/svg">
<path d="M12.004 12C13.3395 12 14.5952 11.48 15.5392 10.5356C16.484 9.59155 17.0041 8.33586 17.0041 7C17.0041 5.66414 16.484 4.40845 15.5392 3.46443C14.5952 2.52002 13.3395 2 12.004 2C10.669 2 9.41331 2.52002 8.46848 3.46443C7.52407 4.40926 7.00405 5.66496 7.00405 7C7.00405 8.33504 7.52407 9.59074 8.46848 10.5356C9.41331 11.48 10.669 12 12.004 12ZM9.35228 4.34822C10.0607 3.64022 11.0027 3.25 12.004 3.25C13.0058 3.25 13.9474 3.64022 14.6554 4.34822C15.3642 5.05664 15.754 5.99821 15.754 7C15.754 8.00179 15.3642 8.94336 14.6554 9.65177C13.9474 10.3598 13.0058 10.75 12.004 10.75C11.0027 10.75 10.0607 10.3598 9.35228 9.65177C8.64427 8.94336 8.25405 8.00138 8.25405 7C8.25405 5.99862 8.64427 5.05664 9.35228 4.34822Z" fill="black" fill-opacity="0.6"/>
<path d="M18.1784 15.1706C16.5239 13.5202 14.299 12.6226 11.9959 12.6169C9.65908 12.6169 7.46181 13.5283 5.80938 15.1836C4.15737 16.8389 3.24998 19.0378 3.25404 21.3758C3.25487 21.7209 3.53441 22 3.87905 22H3.88027C4.22533 21.9992 4.50487 21.7192 4.50405 21.3742C4.50039 19.3698 5.27838 17.485 6.6944 16.0666C8.11042 14.6481 9.99315 13.8669 11.9971 13.8669C12.0016 13.8669 12.0061 13.8669 12.011 13.8669C14.0052 13.8669 15.881 14.644 17.2954 16.0552C18.7147 17.472 19.4959 19.3551 19.4959 21.3587C19.4959 21.7038 19.7759 21.9837 20.1209 21.9837C20.466 21.9837 20.7459 21.7038 20.7459 21.3587C20.7459 19.0207 19.8336 16.8234 18.1784 15.1706Z" fill="black" fill-opacity="0.6"/>
</svg>
