<svg width="14" height="14" viewBox="0 0 14 14" fill="none" xmlns="http://www.w3.org/2000/svg">
<path d="M9.73098 6.44499H9.72543C7.73277 6.44499 6.11755 8.06021 6.11755 10.0529C6.11755 12.04 7.73277 13.6607 9.72543 13.6607C11.7125 13.6552 13.3333 12.04 13.3333 10.0529C13.3278 8.06021 11.7125 6.44499 9.72543 6.43944L9.73098 6.44499ZM11.7847 9.32019L10.0363 11.6514V11.6459C9.70322 12.0899 9.07046 12.1787 8.62641 11.8457C8.58201 11.8124 8.5487 11.7791 8.50985 11.7458L7.61066 10.8411C7.38863 10.619 7.38863 10.2693 7.60511 10.0529C7.82158 9.83085 8.17126 9.83085 8.38774 10.0473L9.09266 10.7522C9.14262 10.8022 9.23143 10.8022 9.28693 10.7522C9.28693 10.7467 9.29248 10.7411 9.29803 10.7356L10.8744 8.62637V8.62082C11.0576 8.37104 11.4017 8.32109 11.6515 8.50981C11.8957 8.69298 11.9457 9.03711 11.7569 9.28689L11.7847 9.32019Z" fill="black" fill-opacity="0.6"/>
<path d="M6.69093 5.074V5.06845C6.54661 5.12951 6.48555 5.29047 6.55216 5.43479C6.55771 5.45144 6.57436 5.47364 6.58546 5.49029C6.74643 5.69011 6.8963 5.91214 7.01841 6.14526C7.09057 6.27848 7.25708 6.32843 7.3903 6.25627C7.3903 6.25072 7.39585 6.25072 7.4014 6.24517V6.23962C8.09522 5.80668 8.89451 5.5791 9.71599 5.5791C9.81035 5.5791 9.89361 5.49584 9.89361 5.40148C9.89361 5.33488 9.86031 5.27937 9.8048 5.24607C8.85565 4.65771 7.68448 4.58 6.66872 5.03515L6.69093 5.074Z" fill="black" fill-opacity="0.6"/>
<path d="M7.79383 0.339355C7.27712 0.339355 6.78157 0.544032 6.4162 0.90836C6.05083 1.27269 5.84557 1.76682 5.84557 2.28206C5.84557 2.7973 6.05083 3.29143 6.4162 3.65576C6.78157 4.02008 7.27712 4.22476 7.79383 4.22476C8.31053 4.22476 8.80608 4.02008 9.17145 3.65576C9.53682 3.29143 9.74208 2.7973 9.74208 2.28206C9.74208 1.76682 9.53682 1.27269 9.17145 0.90836C8.80608 0.544032 8.31053 0.339355 7.79383 0.339355Z" fill="black" fill-opacity="0.6"/>
<path d="M6.4356 6.85018C5.73067 5.14061 3.77687 4.31912 2.06729 5.01849C0.934974 5.47919 0.146791 6.51715 0.00802675 7.73273H0.00247617C-0.0197262 7.91035 0.107937 8.07686 0.291106 8.09907C0.302207 8.09907 0.313309 8.09907 0.32996 8.09907H5.55306L5.54751 8.09851C5.64742 8.09851 5.74178 8.03745 5.79173 7.94864H5.78618C5.9416 7.64891 6.13032 7.37694 6.35234 7.12161V7.11606C6.41895 7.0328 6.4356 6.92179 6.39674 6.82743L6.4356 6.85018Z" fill="black" fill-opacity="0.6"/>
<path d="M3.07583 0.339355C2.55912 0.339355 2.06358 0.544032 1.69821 0.90836C1.33284 1.27269 1.12758 1.76682 1.12758 2.28206C1.12758 2.7973 1.33284 3.29143 1.69821 3.65576C2.06358 4.02008 2.55912 4.22476 3.07583 4.22476C3.59254 4.22476 4.08809 4.02008 4.45346 3.65576C4.81882 3.29143 5.02409 2.7973 5.02409 2.28206C5.02409 1.76682 4.81882 1.27269 4.45346 0.90836C4.08809 0.544032 3.59254 0.339355 3.07583 0.339355Z" fill="black" fill-opacity="0.6"/>
</svg>
