<?xml version="1.0" encoding="utf-8"?>
<!-- Generator: Adobe Illustrator 24.0.3, SVG Export Plug-In . SVG Version: 6.00 Build 0)  -->
<svg version="1.1" id="Layer_1" xmlns="http://www.w3.org/2000/svg" xmlns:xlink="http://www.w3.org/1999/xlink" x="0px" y="0px"
	 viewBox="0 0 20 20" style="enable-background:new 0 0 20 20;" xml:space="preserve">
<style type="text/css">
	.st0{fill:#FF5C4D;}
	.st1{fill-rule:evenodd;clip-rule:evenodd;fill:#FF5C4D;}
</style>
<path class="st0" d="M7.9,7.9c0.4,0,0.7,0.3,0.7,0.7v5.7c0,0.4-0.3,0.7-0.7,0.7c-0.4,0-0.7-0.3-0.7-0.7V8.6C7.1,8.2,7.5,7.9,7.9,7.9
	z"/>
<path class="st0" d="M12.9,8.6c0-0.4-0.3-0.7-0.7-0.7c-0.4,0-0.7,0.3-0.7,0.7v5.7c0,0.4,0.3,0.7,0.7,0.7c0.4,0,0.7-0.3,0.7-0.7V8.6z
	"/>
<path class="st1" d="M7.8,0.7c-1.2,0-2.1,1-2.1,2.1v0.7h-5C0.3,3.6,0,3.9,0,4.3C0,4.7,0.3,5,0.7,5h2.1v12.1c0,1.2,1,2.1,2.1,2.1l0,0
	h10l0,0c1.2,0,2.1-1,2.1-2.1V5h2.2C19.7,5,20,4.7,20,4.3c0-0.4-0.3-0.7-0.7-0.7h-5V2.9c0,0,0,0,0,0c0-1.2-1-2.1-2.1-2.1L7.9,2.1h0
	l4.3-1.4H7.8z M7.4,2.3L5.7,2.9L7.4,2.3C7.2,2.4,7.1,2.6,7.1,2.9v0.7h5.7V2.9c0,0,0,0,0,0c0-0.4-0.3-0.7-0.7-0.7H7.9L7.4,2.3
	C7.4,2.3,7.4,2.3,7.4,2.3z M7.4,2.3l0.4-0.1h0C7.7,2.1,7.5,2.2,7.4,2.3z M4.3,5v12.1c0,0.4,0.3,0.7,0.7,0.7h10
	c0.4,0,0.7-0.3,0.7-0.7V5H4.3z"/>
</svg>
