<svg width="16" height="15" viewBox="0 0 16 15" fill="none" xmlns="http://www.w3.org/2000/svg">
<path fill-rule="evenodd" clip-rule="evenodd" d="M7.11964 4.94068L10.4956 6.62863C10.5102 6.63399 10.5247 6.64022 10.5389 6.64734C10.9936 6.8747 11.1778 7.4272 10.9504 7.88191C10.9474 7.88797 10.9442 7.89395 10.9409 7.89985C10.8572 8.04867 10.7248 8.20091 10.5318 8.29406L7.1418 10.0394C7.12187 10.0496 7.10121 10.0582 7.08003 10.0651C6.62747 10.2559 6.10843 10.059 5.891 9.62413C5.82524 9.49263 5.79368 9.35143 5.79368 9.20668V5.84599C5.78978 5.8231 5.78775 5.79957 5.78775 5.77557C5.78775 5.2642 6.19631 4.84928 6.70812 4.84928C6.84837 4.84928 6.97983 4.88135 7.09356 4.92874C7.10239 4.93242 7.11109 4.9364 7.11964 4.94068ZM6.62701 5.77557C6.62701 5.76487 6.62661 5.75426 6.62581 5.74376C6.63798 5.70528 6.67196 5.68261 6.70812 5.68261C6.72025 5.68261 6.73916 5.6853 6.76286 5.69398L10.1721 7.39862L10.1836 7.40415C10.2115 7.42772 10.222 7.4668 10.2084 7.5017C10.1892 7.53224 10.1731 7.54191 10.1692 7.54375C10.1647 7.54585 10.1603 7.54804 10.1559 7.5503L6.79788 9.27913C6.78581 9.28369 6.77394 9.28882 6.76231 9.2945C6.71595 9.31714 6.66008 9.29891 6.63635 9.25145C6.631 9.24074 6.62701 9.22786 6.62701 9.20668V5.77557Z" fill="black" fill-opacity="0.6"/>
<path fill-rule="evenodd" clip-rule="evenodd" d="M2.22221 0.416687C1.50117 0.416687 0.916656 1.0012 0.916656 1.72224V13.2778C0.916656 13.9988 1.50117 14.5833 2.22221 14.5833H13.7778C14.4988 14.5833 15.0833 13.9988 15.0833 13.2778V1.72224C15.0833 1.0012 14.4988 0.416687 13.7778 0.416687H2.22221ZM1.74999 1.72224C1.74999 1.46144 1.96141 1.25002 2.22221 1.25002H13.7778C14.0386 1.25002 14.25 1.46144 14.25 1.72224V13.2778C14.25 13.5386 14.0386 13.75 13.7778 13.75H2.22221C1.96141 13.75 1.74999 13.5386 1.74999 13.2778V1.72224Z" fill="black" fill-opacity="0.6"/>
</svg>
